<svg width="134" height="156" viewBox="0 0 134 156" fill="none" xmlns="http://www.w3.org/2000/svg">
<rect x="0.995117" width="133" height="156" rx="10" fill="white"/>
<path d="M53.3631 29.128C52.7018 29.128 52.0991 28.9893 51.5551 28.712C51.0218 28.4347 50.5738 28.056 50.2111 27.576C49.8591 27.096 49.6245 26.568 49.5071 25.992L51.1871 24.936C51.3578 25.6187 51.6245 26.168 51.9871 26.584C52.3605 27 52.8351 27.208 53.4111 27.208C53.8485 27.208 54.2005 27.1013 54.4671 26.888C54.7338 26.664 54.8671 26.328 54.8671 25.88C54.8671 25.6027 54.7765 25.3573 54.5951 25.144C54.4138 24.9307 54.1845 24.744 53.9071 24.584C53.6405 24.424 53.2565 24.2213 52.7551 23.976L52.2911 23.752C51.6511 23.432 51.1391 23.032 50.7551 22.552C50.3711 22.0613 50.1791 21.4373 50.1791 20.68C50.1791 20.1147 50.3071 19.6027 50.5631 19.144C50.8298 18.6853 51.1978 18.328 51.6671 18.072C52.1471 17.8053 52.6911 17.672 53.2991 17.672C54.8458 17.672 55.9018 18.3493 56.4671 19.704L54.7871 20.776C54.5098 19.9867 54.0138 19.592 53.2991 19.592C52.9898 19.592 52.7231 19.6933 52.4991 19.896C52.2751 20.088 52.1631 20.328 52.1631 20.616C52.1631 20.904 52.2591 21.16 52.4511 21.384C52.6538 21.5973 52.8938 21.784 53.1711 21.944C53.4591 22.0933 53.8698 22.2907 54.4031 22.536C54.9258 22.7813 55.3631 23.032 55.7151 23.288C56.0778 23.544 56.3711 23.88 56.5951 24.296C56.8298 24.7013 56.9471 25.1973 56.9471 25.784C56.9471 26.456 56.7925 27.048 56.4831 27.56C56.1845 28.0613 55.7631 28.4507 55.2191 28.728C54.6751 28.9947 54.0565 29.128 53.3631 29.128ZM60.6471 29.128C59.9325 29.128 59.3458 28.9147 58.8871 28.488C58.4285 28.0613 58.1991 27.4587 58.1991 26.68C58.1991 25.88 58.5031 25.24 59.1111 24.76C59.7191 24.28 60.5405 24.04 61.5751 24.04H62.9831V23.688C62.9831 23.2933 62.8498 23 62.5831 22.808C62.3165 22.6053 61.9805 22.504 61.5751 22.504C60.8818 22.504 60.4178 22.8133 60.1831 23.432L58.5031 23.048C58.6311 22.376 58.9725 21.8373 59.5271 21.432C60.0925 21.016 60.7751 20.808 61.5751 20.808C62.6525 20.808 63.4845 21.096 64.0711 21.672C64.6685 22.2373 64.9671 23.0747 64.9671 24.184V29H63.3351L63.1271 27.976C62.4978 28.744 61.6711 29.128 60.6471 29.128ZM61.1751 27.432C61.6551 27.432 62.0765 27.2827 62.4391 26.984C62.8018 26.6747 62.9831 26.2693 62.9831 25.768V25.608H61.6551C61.2178 25.608 60.8765 25.6933 60.6311 25.864C60.3965 26.0347 60.2791 26.296 60.2791 26.648C60.2791 26.8827 60.3591 27.0747 60.5191 27.224C60.6898 27.3627 60.9085 27.432 61.1751 27.432ZM67.0526 17.672H69.0366V29H67.0526V17.672ZM74.6954 29.128C73.8207 29.128 73.09 28.9253 72.5034 28.52C71.9274 28.104 71.5007 27.5813 71.2234 26.952C70.9567 26.312 70.8234 25.6507 70.8234 24.968C70.8234 24.2853 70.9567 23.6293 71.2234 23C71.5007 22.36 71.9274 21.8373 72.5034 21.432C73.09 21.016 73.8207 20.808 74.6954 20.808C75.538 20.808 76.242 21.0107 76.8074 21.416C77.3727 21.8107 77.7887 22.312 78.0554 22.92C78.322 23.528 78.4554 24.152 78.4554 24.792V25.608H72.9034C72.9247 26.0987 73.1007 26.5253 73.4314 26.888C73.7727 27.2507 74.2314 27.432 74.8074 27.432C75.2554 27.432 75.6287 27.3307 75.9274 27.128C76.2367 26.9253 76.514 26.6107 76.7594 26.184L78.3594 26.776C78.0287 27.5333 77.5647 28.1147 76.9674 28.52C76.3807 28.9253 75.6234 29.128 74.6954 29.128ZM76.4234 24.04C76.3274 23.592 76.1354 23.224 75.8474 22.936C75.57 22.648 75.186 22.504 74.6954 22.504C74.226 22.504 73.8367 22.6533 73.5274 22.952C73.218 23.2507 73.026 23.6133 72.9514 24.04H76.4234ZM82.6922 29.128C81.8602 29.128 81.1616 28.9147 80.5962 28.488C80.0416 28.0613 79.6736 27.5493 79.4922 26.952L81.0762 26.104C81.2256 26.52 81.4336 26.8453 81.7002 27.08C81.9776 27.3147 82.3029 27.432 82.6762 27.432C82.9642 27.432 83.2042 27.3733 83.3962 27.256C83.5882 27.128 83.6842 26.9253 83.6842 26.648C83.6842 26.4027 83.5669 26.2053 83.3322 26.056C83.1082 25.896 82.7562 25.7307 82.2762 25.56C82.2016 25.5387 82.0896 25.496 81.9402 25.432C81.3216 25.1867 80.8416 24.8773 80.5002 24.504C80.1589 24.1307 79.9882 23.6507 79.9882 23.064C79.9882 22.648 80.1002 22.2693 80.3242 21.928C80.5482 21.5867 80.8522 21.3147 81.2362 21.112C81.6309 20.9093 82.0736 20.808 82.5642 20.808C83.1082 20.808 83.6042 20.9253 84.0522 21.16C84.5002 21.384 84.8469 21.704 85.0922 22.12L83.9082 23.208C83.5882 22.7387 83.1562 22.504 82.6122 22.504C82.3989 22.504 82.2122 22.5627 82.0522 22.68C81.9029 22.7867 81.8282 22.9307 81.8282 23.112C81.8282 23.304 81.9402 23.4853 82.1642 23.656C82.3882 23.816 82.8256 24.0133 83.4762 24.248C84.0949 24.472 84.5696 24.7653 84.9002 25.128C85.2416 25.4907 85.4122 25.9547 85.4122 26.52C85.4122 27.3093 85.1616 27.944 84.6602 28.424C84.1589 28.8933 83.5029 29.128 82.6922 29.128Z" fill="#FF6854"/>
<path d="M26.8431 98.6022C26.4431 97.8982 26.1311 97.1862 25.9071 96.4662C25.6831 95.7382 25.5711 94.8502 25.5711 93.8022C25.5711 92.7542 25.6831 91.8702 25.9071 91.1502C26.1311 90.4222 26.4431 89.7062 26.8431 89.0022H27.9831C27.5991 89.6822 27.3111 90.4022 27.1191 91.1622C26.9271 91.9222 26.8311 92.8022 26.8311 93.8022C26.8311 94.8342 26.9231 95.7222 27.1071 96.4662C27.2991 97.2022 27.5911 97.9142 27.9831 98.6022H26.8431ZM28.5538 97.4982L31.5658 93.5982C31.8538 93.2382 32.0498 92.9382 32.1538 92.6982C32.2578 92.4582 32.3098 92.1982 32.3098 91.9182C32.3098 91.5342 32.2058 91.2342 31.9978 91.0182C31.7978 90.7942 31.5098 90.6822 31.1338 90.6822C30.7978 90.6822 30.5178 90.7982 30.2938 91.0302C30.0778 91.2542 29.9418 91.5662 29.8858 91.9662L28.6978 91.7382C28.7298 91.3142 28.8538 90.9342 29.0698 90.5982C29.2858 90.2542 29.5738 89.9862 29.9338 89.7942C30.3018 89.6022 30.7098 89.5062 31.1578 89.5062C31.9018 89.5062 32.4938 89.7222 32.9338 90.1542C33.3738 90.5862 33.5938 91.1622 33.5938 91.8822C33.5938 92.5622 33.3218 93.2542 32.7778 93.9582L30.5818 96.8262H33.7858V98.0022H28.5538V97.4982ZM34.6241 97.4982L37.6361 93.5982C37.9241 93.2382 38.1201 92.9382 38.2241 92.6982C38.3281 92.4582 38.3801 92.1982 38.3801 91.9182C38.3801 91.5342 38.2761 91.2342 38.0681 91.0182C37.8681 90.7942 37.5801 90.6822 37.2041 90.6822C36.8681 90.6822 36.5881 90.7982 36.3641 91.0302C36.1481 91.2542 36.0121 91.5662 35.9561 91.9662L34.7681 91.7382C34.8001 91.3142 34.9241 90.9342 35.1401 90.5982C35.3561 90.2542 35.6441 89.9862 36.0041 89.7942C36.3721 89.6022 36.7801 89.5062 37.2281 89.5062C37.9721 89.5062 38.5641 89.7222 39.0041 90.1542C39.4441 90.5862 39.6641 91.1622 39.6641 91.8822C39.6641 92.5622 39.3921 93.2542 38.8481 93.9582L36.6521 96.8262H39.8561V98.0022H34.6241V97.4982ZM41.9184 98.0622C41.6704 98.0622 41.4624 97.9782 41.2944 97.8102C41.1264 97.6422 41.0424 97.4302 41.0424 97.1742C41.0424 96.9182 41.1224 96.7062 41.2824 96.5382C41.4504 96.3702 41.6624 96.2862 41.9184 96.2862C42.1744 96.2862 42.3864 96.3702 42.5544 96.5382C42.7304 96.7062 42.8184 96.9182 42.8184 97.1742C42.8184 97.4302 42.7304 97.6422 42.5544 97.8102C42.3864 97.9782 42.1744 98.0622 41.9184 98.0622ZM43.8233 97.4982L46.8353 93.5982C47.1233 93.2382 47.3193 92.9382 47.4233 92.6982C47.5273 92.4582 47.5793 92.1982 47.5793 91.9182C47.5793 91.5342 47.4753 91.2342 47.2673 91.0182C47.0673 90.7942 46.7793 90.6822 46.4033 90.6822C46.0673 90.6822 45.7873 90.7982 45.5633 91.0302C45.3473 91.2542 45.2113 91.5662 45.1553 91.9662L43.9673 91.7382C43.9993 91.3142 44.1233 90.9342 44.3393 90.5982C44.5553 90.2542 44.8433 89.9862 45.2033 89.7942C45.5713 89.6022 45.9793 89.5062 46.4273 89.5062C47.1713 89.5062 47.7633 89.7222 48.2033 90.1542C48.6433 90.5862 48.8633 91.1622 48.8633 91.8822C48.8633 92.5622 48.5913 93.2542 48.0473 93.9582L45.8513 96.8262H49.0553V98.0022H43.8233V97.4982ZM50.4216 89.5062H51.6936V94.4142L53.8296 91.9542H55.3896L52.9176 94.7382L55.5696 98.0022H54.0096L51.6936 95.0502V98.0022H50.4216V89.5062ZM59.6474 89.6022H60.9794V96.7662H64.6514V98.0022H59.6474V89.6022ZM67.4381 98.0982C66.9021 98.0982 66.4581 97.9422 66.1061 97.6302C65.7621 97.3102 65.5901 96.8542 65.5901 96.2622C65.5901 95.6462 65.8221 95.1622 66.2861 94.8102C66.7501 94.4582 67.3821 94.2822 68.1821 94.2822H69.2381V94.0182C69.2381 93.6582 69.1301 93.3942 68.9141 93.2262C68.7061 93.0502 68.4301 92.9622 68.0861 92.9622C67.4941 92.9622 67.1061 93.2342 66.9221 93.7782L65.8181 93.5262C65.9141 93.0302 66.1701 92.6302 66.5861 92.3262C67.0021 92.0142 67.5021 91.8582 68.0861 91.8582C68.8381 91.8582 69.4261 92.0662 69.8501 92.4822C70.2821 92.8902 70.4981 93.4862 70.4981 94.2702V98.0022H69.4781L69.3101 97.1862C68.8621 97.7942 68.2381 98.0982 67.4381 98.0982ZM67.7381 96.9942C67.9861 96.9942 68.2221 96.9382 68.4461 96.8262C68.6781 96.7062 68.8661 96.5342 69.0101 96.3102C69.1621 96.0782 69.2381 95.7982 69.2381 95.4702V95.3142H68.2301C67.7981 95.3142 67.4701 95.3942 67.2461 95.5542C67.0221 95.7062 66.9101 95.9382 66.9101 96.2502C66.9101 96.4742 66.9861 96.6542 67.1381 96.7902C67.2901 96.9262 67.4901 96.9942 67.7381 96.9942ZM73.9041 98.0982C73.2801 98.0982 72.7681 97.9382 72.3681 97.6182C71.9681 97.2982 71.7041 96.9102 71.5761 96.4542L72.5961 95.9142C72.8521 96.6342 73.2881 96.9942 73.9041 96.9942C74.1521 96.9942 74.3561 96.9342 74.5161 96.8142C74.6761 96.6862 74.7561 96.5022 74.7561 96.2622C74.7561 96.0942 74.6961 95.9542 74.5761 95.8422C74.4641 95.7302 74.3321 95.6422 74.1801 95.5782C74.0281 95.5062 73.7801 95.4022 73.4361 95.2662C72.9641 95.0902 72.6001 94.8662 72.3441 94.5942C72.0881 94.3142 71.9601 93.9542 71.9601 93.5142C71.9601 93.2022 72.0401 92.9222 72.2001 92.6742C72.3601 92.4182 72.5801 92.2182 72.8601 92.0742C73.1481 91.9302 73.4681 91.8582 73.8201 91.8582C74.2281 91.8582 74.5881 91.9422 74.9001 92.1102C75.2121 92.2702 75.4601 92.5102 75.6441 92.8302L74.8641 93.5382C74.6081 93.1542 74.2641 92.9622 73.8321 92.9622C73.6401 92.9622 73.4801 93.0142 73.3521 93.1182C73.2241 93.2222 73.1601 93.3622 73.1601 93.5382C73.1601 93.7142 73.2481 93.8702 73.4241 94.0062C73.6081 94.1422 73.9441 94.3022 74.4321 94.4862C75.4081 94.8382 75.8961 95.4062 75.8961 96.1902C75.8961 96.7742 75.7121 97.2382 75.3441 97.5822C74.9841 97.9262 74.5041 98.0982 73.9041 98.0982ZM79.4312 98.0982C78.7992 98.0982 78.3032 97.9222 77.9432 97.5702C77.5912 97.2182 77.4152 96.6902 77.4152 95.9862V93.0582H76.4432V91.9542H77.4152V90.3102L78.6872 89.5062V91.9542H80.2952V93.0582H78.6872V96.0102C78.6872 96.3622 78.7552 96.6142 78.8912 96.7662C79.0272 96.9182 79.2272 96.9942 79.4912 96.9942C79.7312 96.9942 79.9432 96.9422 80.1272 96.8382L80.4272 97.8822C80.1392 98.0262 79.8072 98.0982 79.4312 98.0982ZM86.2392 94.4022L83.7792 89.6022H85.2312L86.8992 93.0822L88.5672 89.6022H90.0192L87.5592 94.4022V98.0022H86.2392V94.4022ZM92.6559 98.0982C92.0399 98.0982 91.5199 97.9502 91.0959 97.6542C90.6719 97.3582 90.3519 96.9742 90.1359 96.5022C89.9279 96.0222 89.8239 95.5142 89.8239 94.9782C89.8239 94.4422 89.9279 93.9382 90.1359 93.4662C90.3519 92.9862 90.6719 92.5982 91.0959 92.3022C91.5199 92.0062 92.0399 91.8582 92.6559 91.8582C93.2559 91.8582 93.7639 91.9982 94.1799 92.2782C94.5959 92.5582 94.9079 92.9222 95.1159 93.3702C95.3239 93.8182 95.4279 94.2902 95.4279 94.7862V95.3142H91.1439C91.1599 95.7862 91.3039 96.1862 91.5759 96.5142C91.8559 96.8342 92.2359 96.9942 92.7159 96.9942C93.0839 96.9942 93.3879 96.9102 93.6279 96.7422C93.8759 96.5742 94.0999 96.3102 94.2999 95.9502L95.3439 96.3582C95.0799 96.9422 94.7319 97.3782 94.2999 97.6662C93.8679 97.9542 93.3199 98.0982 92.6559 98.0982ZM94.1319 94.2822C94.0599 93.8902 93.8999 93.5742 93.6519 93.3342C93.4119 93.0862 93.0799 92.9622 92.6559 92.9622C92.2639 92.9622 91.9399 93.0902 91.6839 93.3462C91.4279 93.5942 91.2639 93.9062 91.1919 94.2822H94.1319ZM98.3053 98.0982C97.7693 98.0982 97.3253 97.9422 96.9733 97.6302C96.6293 97.3102 96.4573 96.8542 96.4573 96.2622C96.4573 95.6462 96.6893 95.1622 97.1533 94.8102C97.6173 94.4582 98.2493 94.2822 99.0493 94.2822H100.105V94.0182C100.105 93.6582 99.9973 93.3942 99.7813 93.2262C99.5733 93.0502 99.2973 92.9622 98.9533 92.9622C98.3613 92.9622 97.9733 93.2342 97.7893 93.7782L96.6853 93.5262C96.7813 93.0302 97.0373 92.6302 97.4533 92.3262C97.8693 92.0142 98.3693 91.8582 98.9533 91.8582C99.7053 91.8582 100.293 92.0662 100.717 92.4822C101.149 92.8902 101.365 93.4862 101.365 94.2702V98.0022H100.345L100.177 97.1862C99.7293 97.7942 99.1053 98.0982 98.3053 98.0982ZM98.6053 96.9942C98.8533 96.9942 99.0893 96.9382 99.3133 96.8262C99.5453 96.7062 99.7333 96.5342 99.8773 96.3102C100.029 96.0782 100.105 95.7982 100.105 95.4702V95.3142H99.0973C98.6653 95.3142 98.3373 95.3942 98.1133 95.5542C97.8893 95.7062 97.7773 95.9382 97.7773 96.2502C97.7773 96.4742 97.8533 96.6542 98.0053 96.7902C98.1573 96.9262 98.3573 96.9942 98.6053 96.9942ZM102.933 91.9542H104.205V92.9622C104.405 92.6022 104.661 92.3302 104.973 92.1462C105.285 91.9542 105.625 91.8582 105.993 91.8582C106.225 91.8582 106.485 91.9062 106.773 92.0022L106.533 93.1782C106.333 93.0582 106.101 92.9982 105.837 92.9982C105.365 92.9982 104.973 93.2302 104.661 93.6942C104.357 94.1502 104.205 94.8502 104.205 95.7942V98.0022H102.933V91.9542ZM107.184 98.6022C107.576 97.9142 107.864 97.2022 108.048 96.4662C108.24 95.7222 108.336 94.8342 108.336 93.8022C108.336 92.8022 108.24 91.9222 108.048 91.1622C107.856 90.4022 107.568 89.6822 107.184 89.0022H108.324C108.724 89.7142 109.036 90.4342 109.26 91.1622C109.484 91.8822 109.596 92.7622 109.596 93.8022C109.596 94.8422 109.484 95.7262 109.26 96.4542C109.036 97.1742 108.724 97.8902 108.324 98.6022H107.184Z" fill="#6D6B6C"/>
<path d="M44.9231 70.1782C44.9231 71.4262 44.5791 72.4742 43.8911 73.3222C43.2191 74.1542 42.3071 74.7142 41.1551 75.0022V77.1622H38.2271V75.0502C37.0751 74.8102 36.0991 74.2742 35.2991 73.4422C34.5151 72.5942 34.0031 71.6102 33.7631 70.4902L36.2831 68.9062C36.5391 69.9302 36.9391 70.7542 37.4831 71.3782C38.0431 72.0022 38.7551 72.3142 39.6191 72.3142C40.2751 72.3142 40.8031 72.1542 41.2031 71.8342C41.6031 71.4982 41.8031 70.9942 41.8031 70.3222C41.8031 69.9062 41.6671 69.5382 41.3951 69.2182C41.1231 68.8982 40.7791 68.6182 40.3631 68.3782C39.9631 68.1382 39.3871 67.8342 38.6351 67.4662L37.9391 67.1302C36.9791 66.6502 36.2111 66.0502 35.6351 65.3302C35.0591 64.5942 34.7711 63.6582 34.7711 62.5222C34.7711 61.4342 35.0831 60.4982 35.7071 59.7142C36.3311 58.9142 37.1711 58.3942 38.2271 58.1542V56.0422H41.1551V58.2262C42.5791 58.6582 43.5951 59.6022 44.2031 61.0582L41.6831 62.6662C41.2671 61.4822 40.5231 60.8902 39.4511 60.8902C38.9871 60.8902 38.5871 61.0422 38.2511 61.3462C37.9151 61.6342 37.7471 61.9942 37.7471 62.4262C37.7471 62.8582 37.8911 63.2422 38.1791 63.5782C38.4831 63.8982 38.8431 64.1782 39.2591 64.4182C39.6911 64.6422 40.3071 64.9382 41.1071 65.3062C41.8911 65.6742 42.5471 66.0502 43.0751 66.4342C43.6191 66.8182 44.0591 67.3222 44.3951 67.9462C44.7471 68.5542 44.9231 69.2982 44.9231 70.1782ZM52.1051 75.1942C51.1611 75.1942 50.2971 75.0102 49.5131 74.6422C48.7291 74.2582 48.0891 73.7222 47.5931 73.0342C47.1131 72.3302 46.8251 71.5222 46.7291 70.6102L49.5851 70.0822C49.8891 71.6342 50.7291 72.4102 52.1051 72.4102C52.9211 72.4102 53.5371 72.1542 53.9531 71.6422C54.3851 71.1302 54.6011 70.3942 54.6011 69.4342C54.6011 68.4902 54.3691 67.7702 53.9051 67.2742C53.4571 66.7782 52.8091 66.5302 51.9611 66.5302C51.4171 66.5302 50.8891 66.6662 50.3771 66.9382C49.8651 67.2102 49.4011 67.5782 48.9851 68.0422L47.0891 67.6582L48.0251 58.2022H56.6651V60.9862H50.4971L50.1131 64.4902C50.8171 64.0742 51.6091 63.8662 52.4891 63.8662C54.1851 63.8662 55.4651 64.3702 56.3291 65.3782C57.1931 66.3702 57.6251 67.7222 57.6251 69.4342C57.6251 70.5542 57.3931 71.5542 56.9291 72.4342C56.4811 73.2982 55.8411 73.9782 55.0091 74.4742C54.1771 74.9542 53.2091 75.1942 52.1051 75.1942ZM65.7934 75.1942C63.8094 75.1942 62.2814 74.4422 61.2094 72.9382C60.1374 71.4182 59.6014 69.3062 59.6014 66.6022C59.6014 63.8982 60.1374 61.7942 61.2094 60.2902C62.2814 58.7702 63.8094 58.0102 65.7934 58.0102C67.7774 58.0102 69.3054 58.7702 70.3774 60.2902C71.4494 61.7942 71.9854 63.8982 71.9854 66.6022C71.9854 69.3062 71.4494 71.4182 70.3774 72.9382C69.3054 74.4422 67.7774 75.1942 65.7934 75.1942ZM65.7934 72.4102C67.9374 72.4102 69.0094 70.4742 69.0094 66.6022C69.0094 62.7302 67.9374 60.7942 65.7934 60.7942C63.6494 60.7942 62.5774 62.7302 62.5774 66.6022C62.5774 70.4742 63.6494 72.4102 65.7934 72.4102ZM76.5024 75.1462C75.9264 75.1462 75.4464 74.9542 75.0624 74.5702C74.6784 74.1862 74.4864 73.7062 74.4864 73.1302C74.4864 72.5542 74.6784 72.0742 75.0624 71.6902C75.4464 71.3062 75.9264 71.1142 76.5024 71.1142C77.0784 71.1142 77.5584 71.3062 77.9424 71.6902C78.3264 72.0742 78.5184 72.5542 78.5184 73.1302C78.5184 73.7062 78.3264 74.1862 77.9424 74.5702C77.5584 74.9542 77.0784 75.1462 76.5024 75.1462ZM84.1432 62.4262L80.9272 64.3462V61.0822L85.8472 58.2022H87.1672V75.0022H84.1432V62.4262ZM90.7611 58.0102H93.7371V67.6582L97.6731 62.9062H101.345L96.4971 68.4742L101.657 75.0022H98.0091L93.7371 69.2902V75.0022H90.7611V58.0102Z" fill="#000230"/>
<path d="M37.1922 135.804C37.2542 135.867 37.3279 135.916 37.4091 135.95C37.4903 135.984 37.5774 136.001 37.6653 136.001C37.7533 136.001 37.8404 135.984 37.9216 135.95C38.0028 135.916 38.0765 135.867 38.1384 135.804L43.6624 130.273V133.998C43.6624 134.175 43.7326 134.345 43.8576 134.469C43.9826 134.594 44.152 134.665 44.3288 134.665C44.5055 134.665 44.675 134.594 44.7999 134.469C44.9249 134.345 44.9951 134.175 44.9951 133.998V128.668C44.9951 128.491 44.9249 128.321 44.7999 128.196C44.675 128.071 44.5055 128.001 44.3288 128.001H38.998C38.8213 128.001 38.6518 128.071 38.5268 128.196C38.4019 128.321 38.3317 128.491 38.3317 128.668C38.3317 128.844 38.4019 129.014 38.5268 129.139C38.6518 129.264 38.8213 129.334 38.998 129.334H42.7229L37.1922 134.858C37.1298 134.92 37.0802 134.994 37.0464 135.075C37.0125 135.156 36.9951 135.243 36.9951 135.331C36.9951 135.419 37.0125 135.506 37.0464 135.587C37.0802 135.668 37.1298 135.742 37.1922 135.804Z" fill="#EB001B"/>
<path d="M56.0031 137.145C55.4058 137.145 54.8031 137.06 54.1951 136.889C53.5978 136.708 53.0538 136.436 52.5631 136.073C52.4245 135.977 52.3285 135.865 52.2751 135.737C52.2325 135.599 52.2271 135.465 52.2591 135.337C52.2911 135.209 52.3551 135.103 52.4511 135.017C52.5471 134.921 52.6591 134.868 52.7871 134.857C52.9258 134.847 53.0698 134.889 53.2191 134.985C53.6458 135.284 54.0885 135.508 54.5471 135.657C55.0058 135.796 55.4858 135.865 55.9871 135.865C56.4885 135.865 56.9205 135.769 57.2831 135.577C57.6458 135.385 57.9231 135.119 58.1151 134.777C58.3178 134.436 58.4191 134.036 58.4191 133.577C58.4191 132.873 58.2111 132.297 57.7951 131.849C57.3791 131.401 56.8138 131.177 56.0991 131.177C55.6618 131.177 55.2565 131.257 54.8831 131.417C54.5205 131.567 54.1791 131.823 53.8591 132.185C53.7845 132.271 53.6885 132.345 53.5711 132.409C53.4645 132.473 53.3418 132.505 53.2031 132.505C53.0005 132.505 52.8458 132.452 52.7391 132.345C52.6325 132.228 52.5791 132.073 52.5791 131.881V126.393C52.5791 126.18 52.6378 126.015 52.7551 125.897C52.8725 125.78 53.0378 125.721 53.2511 125.721H58.6431C58.8565 125.721 59.0218 125.775 59.1391 125.881C59.2565 125.988 59.3151 126.143 59.3151 126.345C59.3151 126.548 59.2565 126.708 59.1391 126.825C59.0218 126.932 58.8565 126.985 58.6431 126.985H54.0351V131.257H53.6191C53.9071 130.831 54.2911 130.5 54.7711 130.265C55.2618 130.031 55.8005 129.913 56.3871 129.913C57.1018 129.913 57.7151 130.068 58.2271 130.377C58.7498 130.676 59.1551 131.097 59.4431 131.641C59.7311 132.175 59.8751 132.799 59.8751 133.513C59.8751 134.217 59.7151 134.847 59.3951 135.401C59.0858 135.945 58.6431 136.372 58.0671 136.681C57.4911 136.991 56.8031 137.145 56.0031 137.145ZM65.5969 137.145C64.9995 137.145 64.3969 137.06 63.7889 136.889C63.1915 136.708 62.6475 136.436 62.1569 136.073C62.0182 135.977 61.9222 135.865 61.8689 135.737C61.8262 135.599 61.8209 135.465 61.8529 135.337C61.8849 135.209 61.9489 135.103 62.0449 135.017C62.1409 134.921 62.2529 134.868 62.3809 134.857C62.5195 134.847 62.6635 134.889 62.8129 134.985C63.2395 135.284 63.6822 135.508 64.1409 135.657C64.5995 135.796 65.0795 135.865 65.5809 135.865C66.0822 135.865 66.5142 135.769 66.8769 135.577C67.2395 135.385 67.5169 135.119 67.7089 134.777C67.9115 134.436 68.0129 134.036 68.0129 133.577C68.0129 132.873 67.8049 132.297 67.3889 131.849C66.9729 131.401 66.4075 131.177 65.6929 131.177C65.2555 131.177 64.8502 131.257 64.4769 131.417C64.1142 131.567 63.7729 131.823 63.4529 132.185C63.3782 132.271 63.2822 132.345 63.1649 132.409C63.0582 132.473 62.9355 132.505 62.7969 132.505C62.5942 132.505 62.4395 132.452 62.3329 132.345C62.2262 132.228 62.1729 132.073 62.1729 131.881V126.393C62.1729 126.18 62.2315 126.015 62.3489 125.897C62.4662 125.78 62.6315 125.721 62.8449 125.721H68.2369C68.4502 125.721 68.6155 125.775 68.7329 125.881C68.8502 125.988 68.9089 126.143 68.9089 126.345C68.9089 126.548 68.8502 126.708 68.7329 126.825C68.6155 126.932 68.4502 126.985 68.2369 126.985H63.6289V131.257H63.2129C63.5009 130.831 63.8849 130.5 64.3649 130.265C64.8555 130.031 65.3942 129.913 65.9809 129.913C66.6955 129.913 67.3089 130.068 67.8209 130.377C68.3435 130.676 68.7489 131.097 69.0369 131.641C69.3249 132.175 69.4689 132.799 69.4689 133.513C69.4689 134.217 69.3089 134.847 68.9889 135.401C68.6795 135.945 68.2369 136.372 67.6609 136.681C67.0849 136.991 66.3969 137.145 65.5969 137.145ZM72.0546 137.065C71.7773 137.065 71.548 136.975 71.3666 136.793C71.1853 136.612 71.0946 136.383 71.0946 136.105C71.0946 135.828 71.1853 135.604 71.3666 135.433C71.548 135.263 71.7773 135.177 72.0546 135.177C72.3533 135.177 72.5826 135.263 72.7426 135.433C72.9133 135.604 72.9986 135.828 72.9986 136.105C72.9986 136.383 72.9133 136.612 72.7426 136.793C72.5826 136.975 72.3533 137.065 72.0546 137.065ZM78.717 137.145C77.4157 137.145 76.4237 136.649 75.741 135.657C75.069 134.655 74.733 133.22 74.733 131.353C74.733 130.084 74.8823 129.023 75.181 128.169C75.4903 127.316 75.9383 126.671 76.525 126.233C77.1223 125.796 77.853 125.577 78.717 125.577C80.029 125.577 81.021 126.068 81.693 127.049C82.365 128.02 82.701 129.449 82.701 131.337C82.701 132.585 82.5463 133.641 82.237 134.505C81.9383 135.369 81.4957 136.025 80.909 136.473C80.3223 136.921 79.5917 137.145 78.717 137.145ZM78.717 135.881C79.5703 135.881 80.205 135.513 80.621 134.777C81.037 134.041 81.245 132.895 81.245 131.337C81.245 129.78 81.037 128.644 80.621 127.929C80.2157 127.204 79.581 126.841 78.717 126.841C77.8637 126.841 77.229 127.204 76.813 127.929C76.397 128.644 76.189 129.78 76.189 131.337C76.189 132.895 76.397 134.041 76.813 134.777C77.229 135.513 77.8637 135.881 78.717 135.881ZM88.4227 136.985C88.3374 137.135 88.2307 137.231 88.1027 137.273C87.9854 137.327 87.8681 137.337 87.7507 137.305C87.6334 137.284 87.5321 137.225 87.4467 137.129C87.3721 137.044 87.3294 136.937 87.3187 136.809C87.3081 136.681 87.3401 136.543 87.4147 136.393L93.5267 125.769C93.6121 125.62 93.7134 125.519 93.8307 125.465C93.9481 125.412 94.0654 125.401 94.1827 125.433C94.3001 125.455 94.3961 125.513 94.4707 125.609C94.5561 125.695 94.6094 125.801 94.6307 125.929C94.6521 126.057 94.6201 126.196 94.5347 126.345L88.4227 136.985ZM87.1107 132.473C86.2467 132.473 85.5694 132.169 85.0787 131.561C84.5987 130.953 84.3587 130.105 84.3587 129.017C84.3587 128.292 84.4654 127.673 84.6787 127.161C84.9027 126.649 85.2174 126.26 85.6227 125.993C86.0387 125.716 86.5347 125.577 87.1107 125.577C87.9641 125.577 88.6361 125.881 89.1267 126.489C89.6174 127.097 89.8627 127.94 89.8627 129.017C89.8627 129.743 89.7507 130.367 89.5267 130.889C89.3134 131.401 88.9987 131.796 88.5827 132.073C88.1774 132.34 87.6867 132.473 87.1107 132.473ZM87.1107 131.433C87.4307 131.433 87.7027 131.348 87.9267 131.177C88.1507 130.996 88.3214 130.729 88.4387 130.377C88.5561 130.015 88.6147 129.561 88.6147 129.017C88.6147 128.217 88.4814 127.62 88.2147 127.225C87.9481 126.82 87.5801 126.617 87.1107 126.617C86.8014 126.617 86.5294 126.708 86.2947 126.889C86.0707 127.06 85.8947 127.327 85.7667 127.689C85.6494 128.041 85.5907 128.484 85.5907 129.017C85.5907 129.828 85.7241 130.436 85.9907 130.841C86.2681 131.236 86.6414 131.433 87.1107 131.433ZM94.8547 137.145C93.9907 137.145 93.3134 136.841 92.8227 136.233C92.3427 135.625 92.1027 134.777 92.1027 133.689C92.1027 132.964 92.2094 132.345 92.4227 131.833C92.6467 131.321 92.9614 130.932 93.3667 130.665C93.7827 130.388 94.2787 130.249 94.8547 130.249C95.7081 130.249 96.3801 130.553 96.8707 131.161C97.3614 131.769 97.6067 132.612 97.6067 133.689C97.6067 134.415 97.4947 135.039 97.2707 135.561C97.0574 136.073 96.7427 136.468 96.3267 136.745C95.9214 137.012 95.4307 137.145 94.8547 137.145ZM94.8547 136.105C95.1747 136.105 95.4467 136.02 95.6707 135.849C95.8947 135.668 96.0654 135.401 96.1827 135.049C96.3001 134.687 96.3587 134.233 96.3587 133.689C96.3587 132.889 96.2254 132.292 95.9587 131.897C95.6921 131.492 95.3241 131.289 94.8547 131.289C94.5454 131.289 94.2734 131.38 94.0387 131.561C93.8147 131.732 93.6387 131.999 93.5107 132.361C93.3934 132.713 93.3347 133.156 93.3347 133.689C93.3347 134.5 93.4681 135.108 93.7347 135.513C94.0121 135.908 94.3854 136.105 94.8547 136.105Z" fill="#222325"/>
</svg>
