<svg width="209" height="90" viewBox="0 0 209 90" fill="none" xmlns="http://www.w3.org/2000/svg">
<rect x="0.995117" width="208" height="90" rx="10" fill="white"/>
<path d="M74.9978 44.9995C74.9978 61.0158 62.0141 73.9995 45.9978 73.9995C29.9815 73.9995 16.9978 61.0158 16.9978 44.9995C16.9978 28.9833 29.9815 15.9995 45.9978 15.9995C62.0141 15.9995 74.9978 28.9833 74.9978 44.9995ZM21.3262 44.9995C21.3262 58.6253 32.372 69.6712 45.9978 69.6712C59.6236 69.6712 70.6694 58.6253 70.6694 44.9995C70.6694 31.3737 59.6236 20.3279 45.9978 20.3279C32.372 20.3279 21.3262 31.3737 21.3262 44.9995Z" fill="#E5E7EB"/>
<path d="M68.5228 30.5886C69.574 29.9161 69.8879 28.5125 69.1355 27.5168C67.0617 24.7722 64.5123 22.4135 61.6027 20.5559C58.057 18.2924 54.0613 16.8273 49.8928 16.2623C45.7243 15.6973 41.4827 16.0459 37.4624 17.284C33.4421 18.5221 29.7393 20.6201 26.6109 23.4323C23.4824 26.2445 21.0032 29.7036 19.3452 33.5697C17.6873 37.4358 16.8902 41.6164 17.0094 45.8213C17.1287 50.0263 18.1612 54.1549 20.0356 57.9209C21.5737 61.0113 23.6484 63.7968 26.1573 66.1502C27.0674 67.004 28.4964 66.841 29.2768 65.8671C30.0572 64.8932 29.8918 63.4783 28.9941 62.6115C26.9903 60.6769 25.3273 58.4106 24.0814 55.9073C22.4992 52.7282 21.6275 49.2429 21.5269 45.6932C21.4262 42.1436 22.099 38.6145 23.4986 35.3509C24.8982 32.0872 26.9911 29.1672 29.632 26.7932C32.273 24.4192 35.3988 22.6483 38.7925 21.6031C42.1863 20.5579 45.7669 20.2636 49.2858 20.7405C52.8047 21.2175 56.1777 22.4543 59.1709 24.3651C61.5278 25.8698 63.6047 27.764 65.3156 29.9618C66.0821 30.9466 67.4716 31.2612 68.5228 30.5886Z" fill="#FF6854"/>
<path d="M25.4106 45.005C25.4106 33.6347 34.6281 24.4172 45.9984 24.4172C57.3687 24.4172 66.5862 33.6347 66.5862 45.005C66.5862 56.3753 57.3687 65.5928 45.9984 65.5928C34.6281 65.5928 25.4106 56.3753 25.4106 45.005ZM63.0004 45.005C63.0004 35.615 55.3883 28.003 45.9984 28.003C36.6085 28.003 28.9964 35.615 28.9964 45.005C28.9964 54.3949 36.6085 62.007 45.9984 62.007C55.3883 62.007 63.0004 54.3949 63.0004 45.005Z" fill="#E5E7EB"/>
<path d="M64.3259 48.5329C65.3693 48.7337 66.3874 48.0506 66.49 46.9931C66.7795 44.009 66.4144 40.9895 65.4107 38.148C64.1929 34.7002 62.0787 31.6389 59.2856 29.279C56.4925 26.919 53.1213 25.3456 49.5185 24.7204C45.9158 24.0952 42.2115 24.4408 38.7866 25.7217C35.3617 27.0026 32.3397 29.1725 30.0314 32.0084C27.723 34.8443 26.2117 38.2438 25.6526 41.8575C25.0936 45.4711 25.5071 49.1684 26.8506 52.5692C27.9578 55.372 29.6637 57.89 31.8403 59.9518C32.6117 60.6824 33.8282 60.5298 34.4837 59.6936C35.1392 58.8574 34.9835 57.6554 34.228 56.9083C32.5812 55.28 31.2851 53.3224 30.4291 51.1555C29.3367 48.3903 29.0005 45.384 29.4551 42.4457C29.9096 39.5074 31.1385 36.7432 33.0154 34.4373C34.8924 32.1314 37.3496 30.367 40.1344 29.3255C42.9192 28.284 45.9312 28.003 48.8606 28.5114C51.7901 29.0197 54.5313 30.2991 56.8023 32.218C59.0734 34.1369 60.7925 36.626 61.7828 39.4295C62.5587 41.6263 62.8653 43.954 62.6912 46.2633C62.6113 47.3228 63.2826 48.332 64.3259 48.5329Z" fill="#4FC7EA"/>
<path d="M111.192 27.8029C111.254 27.8654 111.327 27.9149 111.409 27.9488C111.49 27.9826 111.577 28 111.665 28C111.753 28 111.84 27.9826 111.921 27.9488C112.002 27.9149 112.076 27.8654 112.138 27.8029L117.662 22.2722V25.9971C117.662 26.1738 117.732 26.3433 117.857 26.4683C117.982 26.5932 118.152 26.6634 118.328 26.6634C118.505 26.6634 118.674 26.5932 118.799 26.4683C118.924 26.3433 118.995 26.1738 118.995 25.9971V20.6663C118.995 20.4896 118.924 20.3201 118.799 20.1952C118.674 20.0702 118.505 20 118.328 20H112.998C112.821 20 112.651 20.0702 112.526 20.1952C112.401 20.3201 112.331 20.4896 112.331 20.6663C112.331 20.8431 112.401 21.0126 112.526 21.1375C112.651 21.2625 112.821 21.3327 112.998 21.3327H116.722L111.192 26.8567C111.129 26.9186 111.08 26.9923 111.046 27.0735C111.012 27.1547 110.995 27.2418 110.995 27.3298C110.995 27.4178 111.012 27.5049 111.046 27.5861C111.08 27.6673 111.129 27.741 111.192 27.8029Z" fill="#4FC7EA"/>
<path d="M129.187 29.128C128.237 29.128 127.443 28.856 126.803 28.312C126.163 27.768 125.789 27.0213 125.683 26.072L127.299 25.768C127.512 26.9627 128.141 27.56 129.187 27.56C129.795 27.56 130.259 27.3627 130.579 26.968C130.899 26.5733 131.059 26.0187 131.059 25.304C131.059 24.5893 130.893 24.04 130.563 23.656C130.232 23.272 129.763 23.08 129.155 23.08C128.728 23.08 128.333 23.1867 127.971 23.4C127.608 23.6133 127.293 23.896 127.027 24.248L125.923 24.024L126.531 17.8H132.131V19.368H127.955L127.667 22.104C128.168 21.752 128.755 21.576 129.427 21.576C130.504 21.576 131.331 21.912 131.907 22.584C132.493 23.256 132.787 24.1627 132.787 25.304C132.787 26.0507 132.637 26.712 132.339 27.288C132.04 27.864 131.619 28.3173 131.075 28.648C130.531 28.968 129.901 29.128 129.187 29.128ZM137.499 29.128C136.55 29.128 135.755 28.856 135.115 28.312C134.475 27.768 134.102 27.0213 133.995 26.072L135.611 25.768C135.824 26.9627 136.454 27.56 137.499 27.56C138.107 27.56 138.571 27.3627 138.891 26.968C139.211 26.5733 139.371 26.0187 139.371 25.304C139.371 24.5893 139.206 24.04 138.875 23.656C138.544 23.272 138.075 23.08 137.467 23.08C137.04 23.08 136.646 23.1867 136.283 23.4C135.92 23.6133 135.606 23.896 135.339 24.248L134.235 24.024L134.843 17.8H140.443V19.368H136.267L135.979 22.104C136.48 21.752 137.067 21.576 137.739 21.576C138.816 21.576 139.643 21.912 140.219 22.584C140.806 23.256 141.099 24.1627 141.099 25.304C141.099 26.0507 140.95 26.712 140.651 27.288C140.352 27.864 139.931 28.3173 139.387 28.648C138.843 28.968 138.214 29.128 137.499 29.128ZM145.988 29.128C145.294 29.128 144.67 28.968 144.116 28.648C143.561 28.328 143.124 27.8907 142.804 27.336C142.484 26.7813 142.324 26.1627 142.324 25.48C142.324 25.1493 142.372 24.8027 142.468 24.44C142.574 24.0667 142.724 23.7147 142.916 23.384L146.164 17.672H148.036L145.588 21.912C145.726 21.8587 145.892 21.832 146.084 21.832C146.756 21.832 147.364 21.9867 147.908 22.296C148.452 22.6053 148.878 23.0373 149.188 23.592C149.497 24.1467 149.652 24.776 149.652 25.48C149.652 26.1627 149.492 26.7813 149.172 27.336C148.862 27.8907 148.425 28.328 147.86 28.648C147.305 28.968 146.681 29.128 145.988 29.128ZM145.988 27.56C146.553 27.56 147.017 27.368 147.38 26.984C147.753 26.6 147.94 26.0987 147.94 25.48C147.94 24.84 147.753 24.3333 147.38 23.96C147.017 23.5867 146.553 23.4 145.988 23.4C145.422 23.4 144.953 23.5867 144.58 23.96C144.217 24.3333 144.036 24.84 144.036 25.48C144.036 26.0987 144.222 26.6 144.596 26.984C144.969 27.368 145.433 27.56 145.988 27.56ZM152.434 29.08C152.103 29.08 151.826 28.968 151.602 28.744C151.378 28.52 151.266 28.2373 151.266 27.896C151.266 27.5547 151.373 27.272 151.586 27.048C151.81 26.824 152.093 26.712 152.434 26.712C152.775 26.712 153.058 26.824 153.282 27.048C153.517 27.272 153.634 27.5547 153.634 27.896C153.634 28.2373 153.517 28.52 153.282 28.744C153.058 28.968 152.775 29.08 152.434 29.08ZM158.894 29.128C158.201 29.128 157.577 28.968 157.022 28.648C156.467 28.328 156.03 27.8907 155.71 27.336C155.39 26.7813 155.23 26.1627 155.23 25.48C155.23 25.1493 155.278 24.8027 155.374 24.44C155.481 24.0667 155.63 23.7147 155.822 23.384L159.07 17.672H160.942L158.494 21.912C158.633 21.8587 158.798 21.832 158.99 21.832C159.662 21.832 160.27 21.9867 160.814 22.296C161.358 22.6053 161.785 23.0373 162.094 23.592C162.403 24.1467 162.558 24.776 162.558 25.48C162.558 26.1627 162.398 26.7813 162.078 27.336C161.769 27.8907 161.331 28.328 160.766 28.648C160.211 28.968 159.587 29.128 158.894 29.128ZM158.894 27.56C159.459 27.56 159.923 27.368 160.286 26.984C160.659 26.6 160.846 26.0987 160.846 25.48C160.846 24.84 160.659 24.3333 160.286 23.96C159.923 23.5867 159.459 23.4 158.894 23.4C158.329 23.4 157.859 23.5867 157.486 23.96C157.123 24.3333 156.942 24.84 156.942 25.48C156.942 26.0987 157.129 26.6 157.502 26.984C157.875 27.368 158.339 27.56 158.894 27.56ZM168.14 29.128C166.839 29.128 165.836 28.6213 165.132 27.608C164.439 26.5947 164.092 25.192 164.092 23.4C164.092 21.608 164.439 20.2053 165.132 19.192C165.836 18.1787 166.839 17.672 168.14 17.672C169.442 17.672 170.439 18.1787 171.132 19.192C171.836 20.2053 172.188 21.608 172.188 23.4C172.188 25.192 171.836 26.5947 171.132 27.608C170.439 28.6213 169.442 29.128 168.14 29.128ZM168.14 27.56C168.908 27.56 169.49 27.1973 169.884 26.472C170.29 25.7467 170.492 24.7227 170.492 23.4C170.492 22.0773 170.29 21.0533 169.884 20.328C169.49 19.6027 168.908 19.24 168.14 19.24C167.362 19.24 166.775 19.6027 166.38 20.328C165.986 21.0533 165.788 22.0773 165.788 23.4C165.788 24.7227 165.986 25.7467 166.38 26.472C166.775 27.1973 167.362 27.56 168.14 27.56ZM174.946 28.728L183.57 17.256L184.578 18.056L175.954 29.544L174.946 28.728ZM176.514 22.792C176.024 22.792 175.581 22.68 175.186 22.456C174.792 22.232 174.482 21.928 174.258 21.544C174.034 21.1493 173.922 20.712 173.922 20.232C173.922 19.752 174.034 19.32 174.258 18.936C174.482 18.5413 174.792 18.232 175.186 18.008C175.581 17.784 176.024 17.672 176.514 17.672C177.005 17.672 177.448 17.784 177.842 18.008C178.237 18.232 178.546 18.5413 178.77 18.936C178.994 19.32 179.106 19.752 179.106 20.232C179.106 20.712 178.994 21.1493 178.77 21.544C178.546 21.928 178.237 22.232 177.842 22.456C177.448 22.68 177.005 22.792 176.514 22.792ZM176.514 21.464C176.877 21.464 177.165 21.352 177.378 21.128C177.592 20.8933 177.698 20.5947 177.698 20.232C177.698 19.8693 177.592 19.576 177.378 19.352C177.165 19.1173 176.877 19 176.514 19C176.152 19 175.864 19.1173 175.65 19.352C175.437 19.576 175.33 19.8693 175.33 20.232C175.33 20.5947 175.437 20.8933 175.65 21.128C175.864 21.352 176.152 21.464 176.514 21.464ZM183.01 29.128C182.52 29.128 182.077 29.016 181.682 28.792C181.288 28.568 180.978 28.264 180.754 27.88C180.53 27.4853 180.418 27.048 180.418 26.568C180.418 26.088 180.53 25.656 180.754 25.272C180.978 24.8773 181.288 24.568 181.682 24.344C182.077 24.12 182.52 24.008 183.01 24.008C183.501 24.008 183.944 24.12 184.338 24.344C184.733 24.568 185.042 24.8773 185.266 25.272C185.49 25.656 185.602 26.088 185.602 26.568C185.602 27.048 185.49 27.4853 185.266 27.88C185.042 28.264 184.733 28.568 184.338 28.792C183.944 29.016 183.501 29.128 183.01 29.128ZM183.01 27.8C183.373 27.8 183.661 27.688 183.874 27.464C184.088 27.2293 184.194 26.9307 184.194 26.568C184.194 26.2053 184.088 25.912 183.874 25.688C183.661 25.4533 183.373 25.336 183.01 25.336C182.648 25.336 182.36 25.4533 182.146 25.688C181.933 25.912 181.826 26.2053 181.826 26.568C181.826 26.9307 181.933 27.2293 182.146 27.464C182.36 27.688 182.648 27.8 183.01 27.8Z" fill="#4FC7EA"/>
<path d="M138.798 62.1966C138.736 62.1342 138.662 62.0846 138.581 62.0508C138.499 62.0169 138.412 61.9995 138.324 61.9995C138.236 61.9995 138.149 62.0169 138.068 62.0508C137.987 62.0846 137.913 62.1342 137.851 62.1966L132.327 67.7273V64.0024C132.327 63.8257 132.257 63.6562 132.132 63.5312C132.007 63.4063 131.838 63.3361 131.661 63.3361C131.484 63.3361 131.315 63.4063 131.19 63.5312C131.065 63.6562 130.995 63.8257 130.995 64.0024V69.3332C130.995 69.5099 131.065 69.6794 131.19 69.8043C131.315 69.9293 131.484 69.9995 131.661 69.9995H136.992C137.168 69.9995 137.338 69.9293 137.463 69.8043C137.588 69.6794 137.658 69.5099 137.658 69.3332C137.658 69.1564 137.588 68.987 137.463 68.862C137.338 68.737 137.168 68.6668 136.992 68.6668H133.267L138.798 63.1428C138.86 63.0809 138.91 63.0072 138.943 62.926C138.977 62.8448 138.995 62.7577 138.995 62.6697C138.995 62.5818 138.977 62.4947 138.943 62.4135C138.91 62.3323 138.86 62.2586 138.798 62.1966Z" fill="#FF6854"/>
<path d="M149.187 71.1275C148.237 71.1275 147.443 70.8555 146.803 70.3115C146.163 69.7675 145.789 69.0208 145.683 68.0715L147.299 67.7675C147.512 68.9622 148.141 69.5595 149.187 69.5595C149.795 69.5595 150.259 69.3622 150.579 68.9675C150.899 68.5728 151.059 68.0182 151.059 67.3035C151.059 66.5888 150.893 66.0395 150.563 65.6555C150.232 65.2715 149.763 65.0795 149.155 65.0795C148.728 65.0795 148.333 65.1862 147.971 65.3995C147.608 65.6128 147.293 65.8955 147.027 66.2475L145.923 66.0235L146.531 59.7995H152.131V61.3675H147.955L147.667 64.1035C148.168 63.7515 148.755 63.5755 149.427 63.5755C150.504 63.5755 151.331 63.9115 151.907 64.5835C152.493 65.2555 152.787 66.1622 152.787 67.3035C152.787 68.0502 152.637 68.7115 152.339 69.2875C152.04 69.8635 151.619 70.3168 151.075 70.6475C150.531 70.9675 149.901 71.1275 149.187 71.1275ZM157.499 71.1275C156.55 71.1275 155.755 70.8555 155.115 70.3115C154.475 69.7675 154.102 69.0208 153.995 68.0715L155.611 67.7675C155.824 68.9622 156.454 69.5595 157.499 69.5595C158.107 69.5595 158.571 69.3622 158.891 68.9675C159.211 68.5728 159.371 68.0182 159.371 67.3035C159.371 66.5888 159.206 66.0395 158.875 65.6555C158.544 65.2715 158.075 65.0795 157.467 65.0795C157.04 65.0795 156.646 65.1862 156.283 65.3995C155.92 65.6128 155.606 65.8955 155.339 66.2475L154.235 66.0235L154.843 59.7995H160.443V61.3675H156.267L155.979 64.1035C156.48 63.7515 157.067 63.5755 157.739 63.5755C158.816 63.5755 159.643 63.9115 160.219 64.5835C160.806 65.2555 161.099 66.1622 161.099 67.3035C161.099 68.0502 160.95 68.7115 160.651 69.2875C160.352 69.8635 159.931 70.3168 159.387 70.6475C158.843 70.9675 158.214 71.1275 157.499 71.1275ZM163.7 71.0795C163.369 71.0795 163.092 70.9675 162.868 70.7435C162.644 70.5195 162.532 70.2368 162.532 69.8955C162.532 69.5542 162.638 69.2715 162.852 69.0475C163.076 68.8235 163.358 68.7115 163.7 68.7115C164.041 68.7115 164.324 68.8235 164.548 69.0475C164.782 69.2715 164.9 69.5542 164.9 69.8955C164.9 70.2368 164.782 70.5195 164.548 70.7435C164.324 70.9675 164.041 71.0795 163.7 71.0795ZM170.672 71.1275C169.37 71.1275 168.368 70.6208 167.664 69.6075C166.97 68.5942 166.624 67.1915 166.624 65.3995C166.624 63.6075 166.97 62.2048 167.664 61.1915C168.368 60.1782 169.37 59.6715 170.672 59.6715C171.973 59.6715 172.97 60.1782 173.664 61.1915C174.368 62.2048 174.72 63.6075 174.72 65.3995C174.72 67.1915 174.368 68.5942 173.664 69.6075C172.97 70.6208 171.973 71.1275 170.672 71.1275ZM170.672 69.5595C171.44 69.5595 172.021 69.1968 172.416 68.4715C172.821 67.7462 173.024 66.7222 173.024 65.3995C173.024 64.0768 172.821 63.0528 172.416 62.3275C172.021 61.6022 171.44 61.2395 170.672 61.2395C169.893 61.2395 169.306 61.6022 168.912 62.3275C168.517 63.0528 168.32 64.0768 168.32 65.3995C168.32 66.7222 168.517 67.7462 168.912 68.4715C169.306 69.1968 169.893 69.5595 170.672 69.5595ZM177.478 70.7275L186.102 59.2555L187.11 60.0555L178.486 71.5435L177.478 70.7275ZM179.046 64.7915C178.555 64.7915 178.112 64.6795 177.718 64.4555C177.323 64.2315 177.014 63.9275 176.79 63.5435C176.566 63.1488 176.454 62.7115 176.454 62.2315C176.454 61.7515 176.566 61.3195 176.79 60.9355C177.014 60.5408 177.323 60.2315 177.718 60.0075C178.112 59.7835 178.555 59.6715 179.046 59.6715C179.536 59.6715 179.979 59.7835 180.374 60.0075C180.768 60.2315 181.078 60.5408 181.302 60.9355C181.526 61.3195 181.638 61.7515 181.638 62.2315C181.638 62.7115 181.526 63.1488 181.302 63.5435C181.078 63.9275 180.768 64.2315 180.374 64.4555C179.979 64.6795 179.536 64.7915 179.046 64.7915ZM179.046 63.4635C179.408 63.4635 179.696 63.3515 179.91 63.1275C180.123 62.8928 180.23 62.5942 180.23 62.2315C180.23 61.8688 180.123 61.5755 179.91 61.3515C179.696 61.1168 179.408 60.9995 179.046 60.9995C178.683 60.9995 178.395 61.1168 178.182 61.3515C177.968 61.5755 177.862 61.8688 177.862 62.2315C177.862 62.5942 177.968 62.8928 178.182 63.1275C178.395 63.3515 178.683 63.4635 179.046 63.4635ZM185.542 71.1275C185.051 71.1275 184.608 71.0155 184.214 70.7915C183.819 70.5675 183.51 70.2635 183.286 69.8795C183.062 69.4848 182.95 69.0475 182.95 68.5675C182.95 68.0875 183.062 67.6555 183.286 67.2715C183.51 66.8768 183.819 66.5675 184.214 66.3435C184.608 66.1195 185.051 66.0075 185.542 66.0075C186.032 66.0075 186.475 66.1195 186.87 66.3435C187.264 66.5675 187.574 66.8768 187.798 67.2715C188.022 67.6555 188.134 68.0875 188.134 68.5675C188.134 69.0475 188.022 69.4848 187.798 69.8795C187.574 70.2635 187.264 70.5675 186.87 70.7915C186.475 71.0155 186.032 71.1275 185.542 71.1275ZM185.542 69.7995C185.904 69.7995 186.192 69.6875 186.406 69.4635C186.619 69.2288 186.726 68.9302 186.726 68.5675C186.726 68.2048 186.619 67.9115 186.406 67.6875C186.192 67.4528 185.904 67.3355 185.542 67.3355C185.179 67.3355 184.891 67.4528 184.678 67.6875C184.464 67.9115 184.358 68.2048 184.358 68.5675C184.358 68.9302 184.464 69.2288 184.678 69.4635C184.891 69.6875 185.179 69.7995 185.542 69.7995Z" fill="#FF6854"/>
</svg>
