<svg width="400" height="395" viewBox="0 0 400 395" fill="none" xmlns="http://www.w3.org/2000/svg">
<path d="M76.8677 144.236L109.353 144.236L115.407 144.236C130.005 144.236 141.839 156.07 141.839 170.668V170.668C141.839 185.266 153.673 197.1 168.271 197.1H236.317C251.311 197.1 263.467 184.945 263.467 169.95V169.95C263.467 154.955 275.622 142.8 290.617 142.8H325.646" stroke="white" stroke-width="5.66116" stroke-linecap="round"/>
<path d="M76.8677 248.814L115.981 248.814C130.262 248.814 141.839 237.238 141.839 222.957V222.957C141.839 208.676 153.416 197.099 167.696 197.099H236.907C251.576 197.099 263.467 208.991 263.467 223.659V223.659C263.467 238.328 275.358 250.219 290.027 250.219H325.646" stroke="white" stroke-width="5.66116" stroke-linecap="round"/>
<path d="M149.366 320.011L149.366 281.934C149.366 267.336 161.2 255.502 175.798 255.502V255.502C190.396 255.502 202.23 243.668 202.23 229.07L202.23 161.89C202.23 146.895 190.074 134.74 175.08 134.74V134.74C160.085 134.74 147.93 122.584 147.93 107.589L147.93 73.0034" stroke="white" stroke-width="5.66116" stroke-linecap="round"/>
<path d="M253.946 320.011L253.946 281.359C253.946 267.079 242.369 255.502 228.088 255.502V255.502C213.808 255.502 202.231 243.925 202.231 229.645L202.231 161.299C202.231 146.631 214.122 134.74 228.791 134.74V134.74C243.459 134.74 255.351 122.848 255.351 108.18L255.351 73.0034" stroke="white" stroke-width="5.66116" stroke-linecap="round"/>
<g filter="url(#filter0_d_337_2895)">
<circle cx="201.634" cy="198.698" r="23.6701" fill="white"/>
</g>
<path d="M188.8 188.657C189.219 188.175 189.897 188.175 190.316 188.657L198.899 198.527C199.318 199.009 199.318 199.787 198.899 200.269L194.607 205.206C194.188 205.687 193.511 205.687 193.092 205.206C192.673 204.724 192.673 203.943 193.092 203.461L196.622 199.433L188.8 190.399C188.38 189.917 188.38 189.139 188.8 188.657Z" fill="#888888"/>
<path d="M192.957 211.49C192.532 211.015 192.532 210.246 192.957 209.771L201.658 200.035C202.083 199.56 202.769 199.56 203.194 200.035L207.546 204.903C207.97 205.378 207.97 206.147 207.546 206.622C207.121 207.097 206.432 207.097 206.007 206.622L202.457 202.617L194.493 211.49C194.068 211.966 193.381 211.966 192.957 211.49Z" fill="black"/>
<path d="M210.313 185.903C210.738 186.378 210.738 187.146 210.313 187.622L201.612 197.358C201.187 197.833 200.501 197.833 200.076 197.358L195.724 192.49C195.3 192.014 195.3 191.246 195.724 190.771C196.149 190.295 196.838 190.295 197.263 190.771L200.813 194.775L208.777 185.903C209.202 185.426 209.889 185.426 210.313 185.903Z" fill="black"/>
<path d="M214.47 208.343C214.051 208.825 213.373 208.825 212.954 208.343L204.371 198.473C203.952 197.991 203.952 197.213 204.371 196.731L208.663 191.794C209.082 191.313 209.759 191.313 210.178 191.794C210.597 192.276 210.597 193.057 210.178 193.539L206.648 197.567L214.47 206.601C214.89 207.083 214.89 207.861 214.47 208.343Z" fill="#888888"/>
<circle cx="370.54" cy="261.671" r="23.6701" fill="#F1F1F4"/>
<path fill-rule="evenodd" clip-rule="evenodd" d="M361.36 273.927L358.223 270.019C357.468 269.079 357.059 267.922 357.059 266.732V252.582C357.059 250.799 358.485 249.32 360.324 249.194L374.873 248.201C375.93 248.129 376.981 248.41 377.849 248.997L382.961 252.453C383.876 253.072 384.421 254.083 384.421 255.162V271.25C384.421 272.995 383.019 274.439 381.217 274.55L365.07 275.544C363.632 275.632 362.243 275.027 361.36 273.927Z" fill="white"/>
<path d="M365.69 259.011V258.826C365.69 258.356 366.066 257.967 366.551 257.934L370.082 257.699L374.965 264.889V258.578L373.708 258.411V258.323C373.708 257.848 374.093 257.456 374.584 257.431L377.797 257.266V257.728C377.797 257.945 377.635 258.131 377.414 258.168L376.641 258.299V268.52L375.671 268.853C374.86 269.132 373.958 268.834 373.494 268.133L368.753 260.98V267.808L370.212 268.087L370.192 268.222C370.128 268.646 369.762 268.967 369.319 268.986L365.69 269.148C365.642 268.692 365.984 268.284 366.455 268.235L366.933 268.184V259.081L365.69 259.011Z" fill="black"/>
<path fill-rule="evenodd" clip-rule="evenodd" d="M374.288 249.332L359.739 250.326C358.868 250.385 358.192 251.086 358.192 251.93V266.081C358.192 266.874 358.465 267.645 358.969 268.272L362.106 272.18C362.613 272.812 363.411 273.16 364.237 273.109L380.384 272.115C381.212 272.064 381.856 271.4 381.856 270.599V254.511C381.856 254.015 381.606 253.55 381.185 253.266L376.074 249.81C375.553 249.458 374.922 249.289 374.288 249.332ZM360.461 252.151C360.258 252.001 360.355 251.689 360.609 251.671L374.386 250.683C374.825 250.651 375.261 250.772 375.616 251.023L378.381 252.982C378.486 253.056 378.436 253.217 378.306 253.224L363.716 254.017C363.275 254.041 362.839 253.912 362.488 253.652L360.461 252.151ZM363.032 256.505C363.032 256.031 363.415 255.639 363.905 255.613L379.33 254.773C379.808 254.747 380.209 255.114 380.209 255.576V269.506C380.209 269.979 379.828 270.37 379.339 270.398L364.011 271.27C363.48 271.3 363.032 270.892 363.032 270.378V256.505Z" fill="black"/>
<circle cx="23.6701" cy="157.335" r="23.6701" fill="#003087"/>
<path opacity="0.85" d="M33.199 150.773C33.5247 148.649 33.199 147.233 32.0589 145.926C30.8102 144.456 28.5301 143.857 25.5985 143.857H17.1837C16.5865 143.857 16.0979 144.293 15.9893 144.892L12.4605 167.219C12.4062 167.654 12.732 168.035 13.1663 168.035H18.378L17.998 170.323C17.9437 170.704 18.2152 171.03 18.6495 171.03H23.0469C23.5898 171.03 24.0241 170.649 24.0784 170.159L25.0013 164.387C25.0556 163.897 25.5442 163.516 26.0328 163.516H26.6843C30.9188 163.516 34.2847 161.773 35.262 156.763C35.642 154.694 35.4791 152.897 34.3933 151.699C34.0676 151.317 33.6876 151.045 33.199 150.773Z" fill="white"/>
<path d="M33.199 150.773C33.5247 148.649 33.199 147.233 32.0589 145.926C30.8102 144.456 28.5301 143.857 25.5985 143.857H17.1837C16.5865 143.857 16.0979 144.293 15.9893 144.892L12.4605 167.219C12.4062 167.654 12.732 168.035 13.1663 168.035H18.378L19.6267 159.976C19.7353 159.377 20.2239 158.941 20.821 158.941H23.3183C28.2044 158.941 32.0046 156.981 33.0904 151.208C33.1447 151.1 33.1447 150.936 33.199 150.773Z" fill="white" fill-opacity="0.95"/>
<circle cx="268.537" cy="365.672" r="23.6701" fill="#6445A2"/>
<path d="M274.819 359.901H272.627V366.476H274.819V359.901Z" fill="white"/>
<path d="M267.148 359.901H269.34V366.476H267.148V359.901Z" fill="white"/>
<path fill-rule="evenodd" clip-rule="evenodd" d="M256.189 357.71L257.908 353.326H281.394V369.764L274.819 376.339H269.34L265.927 379.626H261.669V376.339H256.189V357.71ZM274.819 371.955L279.202 367.572V355.518H260.573V371.955H264.956V375.243L268.244 371.955H274.819Z" fill="white"/>
<circle cx="33.861" cy="266.159" r="23.6701" fill="#FDEC55"/>
<path d="M26.8491 271C26.5137 270.492 27.3574 269.723 27.0142 269.078C26.8164 268.706 26.493 268.474 26.1047 268.425C25.732 268.378 25.3481 268.515 25.1033 268.782C24.717 269.202 24.6569 269.774 24.7316 269.977C24.759 270.051 24.802 270.071 24.8327 270.076C25.0432 270.103 25.1616 269.563 25.2343 269.451C25.4351 269.141 25.8913 269.047 26.2063 269.251C26.8036 269.637 26.2857 270.261 26.3304 270.789C26.3739 271.302 26.6938 271.509 26.981 271.53C27.2604 271.541 27.4558 271.386 27.5051 271.272C27.6234 271.002 27.1252 271.418 26.8491 271Z" fill="black"/>
<path d="M39.3295 266.338C39.1728 266.316 39.0016 266.317 38.8234 266.338C38.6882 266.167 38.567 265.891 38.4986 265.568C38.377 264.995 38.3897 264.579 38.7292 264.525C39.0686 264.471 39.2328 264.818 39.3544 265.392C39.436 265.778 39.4203 266.132 39.3295 266.338Z" fill="black"/>
<path d="M35.6112 266.679C35.6246 266.809 35.6294 266.941 35.6256 267.062C35.9541 267.081 36.1867 267.237 36.2487 267.336C36.2804 267.387 36.2677 267.42 36.2575 267.436C36.2235 267.489 36.1506 267.481 35.9979 267.463C35.8646 267.449 35.721 267.435 35.5718 267.442C35.4906 267.691 35.2498 267.715 35.0806 267.53C34.9624 267.566 34.7303 267.715 34.6612 267.554C34.6605 267.474 34.7441 267.357 34.8955 267.255C34.7922 267.058 34.7229 266.847 34.682 266.628C34.4674 266.667 34.2744 266.727 34.1231 266.774C34.052 266.796 33.7709 266.923 33.738 266.78C33.716 266.681 33.8698 266.518 34.0325 266.401C34.2143 266.272 34.4159 266.18 34.6249 266.127C34.6204 265.816 34.6998 265.599 34.9259 265.563C35.2063 265.518 35.38 265.734 35.5003 266.134C35.8391 266.228 36.1775 266.461 36.3268 266.702C36.385 266.796 36.3962 266.868 36.3586 266.906C36.2647 267.004 35.7445 266.722 35.6112 266.679Z" fill="black"/>
<path d="M37.8392 268.078C38.0541 268.182 38.2905 268.141 38.3677 267.986C38.4449 267.832 38.333 267.622 38.1181 267.518C37.9031 267.414 37.6667 267.455 37.5896 267.609C37.5124 267.764 37.6242 267.974 37.8392 268.078Z" fill="black"/>
<path d="M38.8971 267.31C38.9011 267.073 39.0461 266.884 39.2205 266.887C39.3949 266.89 39.5331 267.084 39.5292 267.32C39.5253 267.556 39.3802 267.745 39.2059 267.743C39.0315 267.74 38.8932 267.546 38.8971 267.31Z" fill="black"/>
<path fill-rule="evenodd" clip-rule="evenodd" d="M43.626 270.209C43.6246 270.204 43.6295 270.221 43.626 270.209C43.9763 270.209 44.5263 270.606 44.5263 271.566C44.5263 272.521 44.1248 273.603 44.03 273.843C42.5836 277.265 39.1316 279.169 35.0197 279.049C31.1862 278.937 27.9169 276.94 26.4862 273.685C25.6211 273.686 24.7292 273.31 24.0512 272.717C23.3365 272.092 22.8959 271.284 22.81 270.44C22.743 269.784 22.8246 269.173 23.0332 268.64L22.2297 267.968C18.5525 264.903 30.0535 252.285 33.7316 255.452C33.7502 255.468 34.9831 256.661 34.986 256.664C36.7595 255.921 41.5115 254.506 41.5168 257.8C41.5188 258.894 40.8125 260.17 39.6807 261.328C40.9886 262.525 40.6437 264.226 40.852 265.786L41.3063 265.911C42.1724 266.15 42.7883 266.47 43.0897 266.783C43.3911 267.094 43.5406 267.397 43.5948 267.751C43.6456 268.037 43.6387 268.542 43.2568 269.107C43.3943 269.471 43.5199 269.834 43.626 270.209ZM26.4212 272.797C26.5497 272.8 26.6772 272.792 26.8022 272.771C28.146 272.544 28.4977 271.104 28.2764 269.689C28.0263 268.092 26.9317 267.528 26.1887 267.488C25.9821 267.478 25.7901 267.496 25.6318 267.527C24.3056 267.791 23.5568 268.905 23.7043 270.352C23.8377 271.661 25.179 272.764 26.4212 272.797ZM23.4176 267.92C23.8626 267.282 24.5899 266.821 25.4154 266.662C26.4661 263.878 28.2207 261.313 30.5429 259.548C32.2662 258.129 34.1248 257.111 34.1248 257.111C34.1248 257.111 33.124 255.965 32.8216 255.881C30.962 255.385 26.9458 258.119 24.3814 261.731C23.3439 263.193 21.8584 265.781 22.5687 267.112C22.6561 267.277 23.1519 267.701 23.4176 267.92ZM38.4942 272.158C38.4971 272.188 38.4786 272.218 38.4517 272.23C38.4517 272.23 36.9575 272.916 34.584 272.191C34.6694 272.902 35.5321 273.172 36.1349 273.27C39.076 273.769 41.8255 272.109 42.4444 271.691C42.5507 271.619 42.4431 271.804 42.4239 271.831C41.6663 272.796 39.6294 273.913 36.9794 273.912C35.8237 273.912 34.6685 273.51 34.2445 272.893C33.5865 271.934 34.2118 270.536 35.3084 270.681C37.162 270.888 39.0623 270.733 40.7783 269.947C42.2744 269.261 42.8396 268.507 42.7546 267.896C42.6228 266.949 41.2191 266.801 40.5096 266.571C40.2009 266.47 40.0485 266.39 40.0138 265.816C39.9987 265.566 39.9547 264.693 39.9386 264.332C39.9103 263.7 39.8331 262.835 39.2899 262.478C39.1482 262.385 38.991 262.34 38.8254 262.332C38.6933 262.325 38.6151 262.343 38.573 262.353C38.5635 262.355 38.5559 262.357 38.5499 262.358C38.2566 262.407 38.0769 262.556 37.8649 262.731C37.8527 262.741 37.8404 262.751 37.8279 262.761C37.1504 263.319 36.5784 263.41 35.9419 263.383C35.7437 263.374 35.5394 263.355 35.3239 263.334C35.1257 263.315 34.918 263.294 34.6968 263.282L34.4267 263.266C33.3609 263.212 32.2179 264.12 32.0278 265.411C31.8156 266.851 32.6206 267.733 33.1441 268.307C33.2734 268.449 33.3856 268.572 33.461 268.679C33.5094 268.744 33.5655 268.836 33.5655 268.923C33.5655 269.027 33.4972 269.11 33.4302 269.18C32.3429 270.284 31.9951 272.038 32.4049 273.499C32.4562 273.681 32.5212 273.856 32.5979 274.023C33.5592 276.24 36.5418 277.273 39.455 276.334C41.4967 275.675 43.3007 274.085 43.668 271.89C43.7555 271.318 43.627 271.097 43.4521 270.991C43.267 270.879 43.0452 270.918 43.0452 270.918C43.0452 270.918 42.9441 270.234 42.6579 269.613C41.8084 270.275 40.7153 270.74 39.8829 270.975C38.5493 271.353 37.1088 271.5 35.7308 271.322C35.1718 271.25 34.7963 271.201 34.6353 271.717C36.4734 272.382 38.419 272.097 38.419 272.097C38.4566 272.094 38.4903 272.121 38.4942 272.158ZM33.1909 259.264C32.1856 259.772 31.0631 260.676 30.1516 261.716C30.1194 261.753 30.1673 261.804 30.2068 261.776C30.9942 261.21 32.0738 260.685 33.4879 260.344C35.072 259.963 36.597 260.123 37.5285 260.334C37.5754 260.344 37.6047 260.265 37.5632 260.241C36.9477 259.901 36.003 259.669 35.3328 259.664C35.3001 259.664 35.2815 259.626 35.3011 259.6C35.4168 259.446 35.5756 259.294 35.7207 259.185C35.7529 259.159 35.7334 259.108 35.6923 259.11C34.8586 259.161 32.9545 260.029 32.9613 259.997C33.0102 259.766 33.164 259.46 33.2436 259.318C33.2627 259.284 33.2256 259.247 33.1909 259.264Z" fill="black"/>
<circle cx="147.536" cy="23.6701" r="23.6701" fill="#2EB67D"/>
<path d="M156.848 16.5532C157.012 15.5176 156.007 14.7002 155.067 15.1044L136.345 23.1567C135.67 23.4466 135.72 24.4468 136.419 24.6649L140.28 25.8693C141.017 26.0992 141.815 25.9803 142.458 25.5449L151.163 19.6537C151.425 19.476 151.711 19.8416 151.487 20.0681L145.221 26.3964C144.614 27.0103 144.734 28.0505 145.465 28.4996L152.481 32.8091C153.267 33.2925 154.28 32.8069 154.427 31.8755L156.848 16.5532Z" fill="white"/>
<circle cx="265.232" cy="26.8625" r="23.6701" fill="#FC7557"/>
<path d="M257.414 33.7975H260.576V19.042H257.414V33.7975Z" fill="white"/>
<path d="M266.907 19.042C269.809 19.042 272.169 21.4095 272.169 24.3197C272.169 27.2211 269.809 29.5816 266.907 29.5816C263.997 29.5816 261.629 27.2211 261.629 24.3197C261.629 21.4095 263.997 19.042 266.907 19.042Z" fill="white"/>
<circle cx="375.537" cy="141.672" r="23.6701" fill="#4087FC"/>
<path fill-rule="evenodd" clip-rule="evenodd" d="M370.036 133.226L364.557 136.514L370.036 139.801L364.557 143.089L370.036 146.376L375.516 143.089L380.995 146.376L386.474 143.089L380.995 139.801L386.474 136.514L380.995 133.226L375.516 136.514L370.036 133.226ZM375.516 136.514L380.995 139.801L375.516 143.089L370.036 139.801L375.516 136.514Z" fill="white"/>
<path d="M370.036 148.568L375.516 145.28L380.995 148.568L375.516 151.855L370.036 148.568Z" fill="white"/>
<circle cx="150.878" cy="370.457" r="23.6701" fill="#4087FC"/>
<path d="M142.18 363.77C141.413 363.77 140.792 364.471 140.792 365.336V372.928C140.792 375.133 142.377 376.92 144.332 376.92L152.554 376.842C153.321 376.842 153.942 376.141 153.942 375.276V367.605C153.942 365.401 152.061 363.77 150.107 363.77L142.18 363.77Z" fill="white"/>
<path d="M155.818 366.759C155.322 367.249 155.038 367.957 155.038 368.701V371.878C155.038 372.622 155.322 373.33 155.818 373.821L158.905 376.539C159.533 377.16 160.517 376.657 160.517 375.715V365.014C160.517 364.072 159.533 363.569 158.905 364.19L155.818 366.759Z" fill="white"/>
<defs>
<filter id="filter0_d_337_2895" x="177.964" y="175.028" width="56.3982" height="56.3982" filterUnits="userSpaceOnUse" color-interpolation-filters="sRGB">
<feFlood flood-opacity="0" result="BackgroundImageFix"/>
<feColorMatrix in="SourceAlpha" type="matrix" values="0 0 0 0 0 0 0 0 0 0 0 0 0 0 0 0 0 0 127 0" result="hardAlpha"/>
<feOffset dx="4.52893" dy="4.52893"/>
<feGaussianBlur stdDeviation="2.26446"/>
<feComposite in2="hardAlpha" operator="out"/>
<feColorMatrix type="matrix" values="0 0 0 0 0 0 0 0 0 0 0 0 0 0 0 0 0 0 0.1 0"/>
<feBlend mode="normal" in2="BackgroundImageFix" result="effect1_dropShadow_337_2895"/>
<feBlend mode="normal" in="SourceGraphic" in2="effect1_dropShadow_337_2895" result="shape"/>
</filter>
</defs>
</svg>
