<svg width="39" height="39" viewBox="0 0 39 39" fill="none" xmlns="http://www.w3.org/2000/svg">
<path d="M36.2055 2.7945C36.0456 2.63445 35.8442 2.52208 35.624 2.46999C35.4038 2.4179 35.1735 2.42814 34.9587 2.49957L2.05249 13.4683C1.82807 13.5431 1.63027 13.6817 1.48324 13.867C1.3362 14.0523 1.24628 14.2764 1.22444 14.512C1.20261 14.7476 1.2498 14.9844 1.36026 15.1936C1.47072 15.4028 1.63968 15.5753 1.84652 15.6901L12.8153 21.7838C12.9883 21.88 13.1821 21.9326 13.38 21.9371C13.578 21.9416 13.774 21.8977 13.9511 21.8094L20.4312 18.5688L17.1906 25.0489C17.1021 25.2262 17.0581 25.4225 17.0626 25.6206C17.0671 25.8187 17.1198 26.0128 17.2162 26.186L23.3099 37.1547C23.4155 37.3446 23.57 37.5028 23.7572 37.613C23.9445 37.7231 24.1578 37.7812 24.3751 37.7812H24.4885C24.7238 37.759 24.9476 37.6688 25.1326 37.5217C25.3177 37.3745 25.4559 37.1767 25.5305 36.9524L36.4992 4.04616C36.5718 3.83089 36.5827 3.59962 36.5308 3.37845C36.4789 3.15729 36.3663 2.95503 36.2055 2.7945V2.7945ZM24.096 33.5484L19.6586 25.5644L24.2532 16.3884C24.3679 16.1596 24.4076 15.9005 24.3667 15.6478C24.3258 15.3951 24.2064 15.1617 24.0254 14.9807C23.8444 14.7997 23.611 14.6803 23.3583 14.6394C23.1057 14.5985 22.8465 14.6382 22.6177 14.7529L13.4356 19.3415L5.45158 14.9052L33.417 5.583L24.096 33.5484Z" fill="#F7F5ED"/>
<path d="M14.2677 24.7321C14.0392 24.5036 13.7293 24.3752 13.4061 24.3752C13.0829 24.3752 12.773 24.5036 12.5444 24.7321L5.23193 32.0446C5.11553 32.157 5.02268 32.2915 4.95881 32.4402C4.89494 32.5889 4.86132 32.7488 4.85991 32.9106C4.8585 33.0724 4.88934 33.2329 4.95062 33.3827C5.0119 33.5325 5.10239 33.6686 5.21683 33.783C5.33126 33.8974 5.46733 33.9879 5.61711 34.0492C5.76689 34.1105 5.92738 34.1413 6.0892 34.1399C6.25103 34.1385 6.41095 34.1049 6.55964 34.041C6.70834 33.9771 6.84282 33.8843 6.95525 33.7679L14.2677 26.4554C14.4962 26.2268 14.6246 25.9169 14.6246 25.5937C14.6246 25.2706 14.4962 24.9606 14.2677 24.7321V24.7321Z" fill="#F7F5ED"/>
<path d="M5.7365 27.6741L9.39275 24.0178C9.61475 23.788 9.73759 23.4801 9.73482 23.1606C9.73204 22.841 9.60387 22.5353 9.3779 22.3094C9.15193 22.0834 8.84626 21.9552 8.5267 21.9524C8.20715 21.9497 7.89929 22.0725 7.66943 22.2945L4.01318 25.9508C3.89678 26.0632 3.80393 26.1977 3.74006 26.3464C3.67619 26.4951 3.64257 26.655 3.64116 26.8168C3.63975 26.9786 3.67059 27.1391 3.73187 27.2889C3.79315 27.4387 3.88365 27.5747 3.99808 27.6892C4.11251 27.8036 4.24858 27.8941 4.39836 27.9554C4.54814 28.0167 4.70863 28.0475 4.87045 28.0461C5.03228 28.0447 5.1922 28.0111 5.34089 27.9472C5.48959 27.8833 5.62407 27.7905 5.7365 27.6741Z" fill="#F7F5ED"/>
<path d="M14.9819 29.607L11.3257 33.2633C11.2093 33.3757 11.1164 33.5102 11.0526 33.6589C10.9887 33.8076 10.9551 33.9675 10.9537 34.1293C10.9523 34.2911 10.9831 34.4516 11.0444 34.6014C11.1057 34.7512 11.1961 34.8872 11.3106 35.0017C11.425 35.1161 11.5611 35.2066 11.7109 35.2679C11.8606 35.3292 12.0211 35.36 12.183 35.3586C12.3448 35.3572 12.5047 35.3236 12.6534 35.2597C12.8021 35.1958 12.9366 35.103 13.049 34.9866L16.7052 31.3303C16.9273 31.1005 17.0501 30.7926 17.0473 30.4731C17.0445 30.1535 16.9164 29.8478 16.6904 29.6219C16.4644 29.3959 16.1588 29.2677 15.8392 29.2649C15.5197 29.2622 15.2118 29.385 14.9819 29.607Z" fill="#F7F5ED"/>
</svg>
