<svg width="138" height="46" viewBox="0 0 138 46" fill="none" xmlns="http://www.w3.org/2000/svg">
<path d="M22.7746 9.56156e-05L18.1921 4.58252L22.737 9.1274L27.3194 4.54498L22.7746 9.56156e-05Z" fill="white"/>
<path d="M22.7686 45.5444L27.3134 40.9996L18.2109 31.8971L28.7267 21.3813L24.1819 16.8365L13.6661 27.3523L9.08961 22.7766L19.6054 12.2609L15.0606 7.71606L0 22.7766L22.7686 45.5444Z" fill="#FF6854"/>
<path d="M31.8739 9.1425L27.3132 13.7031L31.8581 18.248L36.4187 13.6874L31.8739 9.1425Z" fill="white"/>
<path d="M56.712 17.032H46.632V34H50.088V27.016H55.824V24.016H50.088V20.056H56.712V17.032ZM67.8641 34V30.952H62.4161V17.032H58.9601V34H67.8641ZM76.6661 17.032L73.0421 22.96L69.4181 17.032H65.6021L71.3141 25.984V34H74.7941V25.936L80.4581 17.032H76.6661Z" fill="#F7F5ED"/>
<path d="M100.428 17.032H95.3158L91.6918 27.616L88.0678 17.032H82.9558L81.5638 34H85.0678L86.1478 20.656L90.5158 34H92.8678L97.2358 20.656L98.3158 34H101.82L100.428 17.032ZM120.075 34L113.739 17.032H109.443L103.083 34H106.779L108.051 30.448H115.131L116.403 34H120.075ZM111.603 20.56L114.099 27.592H109.083L111.603 20.56ZM125.346 34V17.032H121.89V34H125.346ZM137.52 34V30.952H132.072V17.032H128.616V34H137.52Z" fill="#FF6854"/>
</svg>
