<svg width="165" height="177" viewBox="0 0 165 177" fill="none" xmlns="http://www.w3.org/2000/svg">
<rect x="0.376953" y="0.993164" width="164" height="176" rx="10" fill="white"/>
<rect x="95.3774" y="128.993" width="13" height="32" rx="3" fill="#EEEEEE"/>
<path d="M49.9622 108.446V114.992H49.1696V108.446H49.9622ZM52.2034 112.039V114.992H51.4491V110.083H52.1778V110.85H52.2417C52.3568 110.601 52.5315 110.4 52.7659 110.249C53.0003 110.096 53.3028 110.019 53.6736 110.019C54.0059 110.019 54.2968 110.087 54.5461 110.223C54.7954 110.358 54.9893 110.562 55.1278 110.837C55.2662 111.11 55.3355 111.455 55.3355 111.873V114.992H54.5812V111.924C54.5812 111.538 54.4811 111.238 54.2808 111.022C54.0805 110.805 53.8057 110.696 53.4562 110.696C53.2155 110.696 53.0003 110.749 52.8106 110.853C52.6231 110.957 52.4751 111.11 52.3664 111.31C52.2577 111.51 52.2034 111.753 52.2034 112.039ZM59.3473 114.992V108.446H61.559C62.0724 108.446 62.4922 108.539 62.8182 108.725C63.1463 108.908 63.3892 109.156 63.5469 109.469C63.7045 109.782 63.7834 110.132 63.7834 110.518C63.7834 110.903 63.7045 111.254 63.5469 111.569C63.3913 111.884 63.1506 112.136 62.8246 112.323C62.4986 112.509 62.081 112.601 61.5717 112.601H59.9865V111.898H61.5462C61.8977 111.898 62.18 111.837 62.3931 111.716C62.6062 111.595 62.7607 111.431 62.8565 111.224C62.9545 111.015 63.0036 110.78 63.0036 110.518C63.0036 110.255 62.9545 110.021 62.8565 109.814C62.7607 109.608 62.6051 109.446 62.3899 109.329C62.1747 109.209 61.8892 109.15 61.5334 109.15H60.1399V114.992H59.3473ZM64.9579 114.992V110.083H65.6866V110.824H65.7378C65.8272 110.581 65.9892 110.384 66.2235 110.233C66.4579 110.082 66.7221 110.006 67.0162 110.006C67.0716 110.006 67.1408 110.007 67.2239 110.009C67.307 110.011 67.3699 110.015 67.4125 110.019V110.786C67.3869 110.78 67.3283 110.77 67.2367 110.757C67.1472 110.742 67.0524 110.735 66.9522 110.735C66.7136 110.735 66.5005 110.785 66.313 110.885C66.1277 110.983 65.9806 111.119 65.872 111.294C65.7654 111.467 65.7122 111.664 65.7122 111.885V114.992H64.9579ZM70.1515 115.094C69.7083 115.094 69.3194 114.989 68.9849 114.778C68.6525 114.567 68.3926 114.272 68.2051 113.893C68.0197 113.513 67.927 113.07 67.927 112.563C67.927 112.052 68.0197 111.605 68.2051 111.224C68.3926 110.842 68.6525 110.546 68.9849 110.335C69.3194 110.124 69.7083 110.019 70.1515 110.019C70.5946 110.019 70.9824 110.124 71.3148 110.335C71.6493 110.546 71.9093 110.842 72.0946 111.224C72.2821 111.605 72.3759 112.052 72.3759 112.563C72.3759 113.07 72.2821 113.513 72.0946 113.893C71.9093 114.272 71.6493 114.567 71.3148 114.778C70.9824 114.989 70.5946 115.094 70.1515 115.094ZM70.1515 114.417C70.4881 114.417 70.7651 114.33 70.9824 114.158C71.1998 113.985 71.3606 113.758 71.465 113.477C71.5694 113.196 71.6216 112.891 71.6216 112.563C71.6216 112.235 71.5694 111.929 71.465 111.646C71.3606 111.362 71.1998 111.133 70.9824 110.959C70.7651 110.784 70.4881 110.696 70.1515 110.696C69.8148 110.696 69.5378 110.784 69.3205 110.959C69.1032 111.133 68.9423 111.362 68.8379 111.646C68.7335 111.929 68.6813 112.235 68.6813 112.563C68.6813 112.891 68.7335 113.196 68.8379 113.477C68.9423 113.758 69.1032 113.985 69.3205 114.158C69.5378 114.33 69.8148 114.417 70.1515 114.417ZM75.5088 116.935C75.1444 116.935 74.8312 116.888 74.5692 116.795C74.3071 116.703 74.0887 116.581 73.914 116.43C73.7414 116.281 73.604 116.121 73.5017 115.951L74.1025 115.529C74.1707 115.618 74.257 115.721 74.3614 115.836C74.4658 115.953 74.6086 116.054 74.7897 116.139C74.9729 116.227 75.2126 116.27 75.5088 116.27C75.9051 116.27 76.2322 116.174 76.49 115.983C76.7478 115.791 76.8767 115.491 76.8767 115.081V114.084H76.8128C76.7574 114.174 76.6785 114.285 76.5763 114.417C76.4761 114.547 76.3312 114.663 76.1416 114.765C75.9541 114.865 75.7006 114.915 75.381 114.915C74.9846 114.915 74.6288 114.821 74.3135 114.634C74.0003 114.446 73.752 114.174 73.5688 113.816C73.3877 113.458 73.2971 113.023 73.2971 112.512C73.2971 112.009 73.3856 111.571 73.5624 111.198C73.7393 110.823 73.9854 110.533 74.3007 110.329C74.616 110.122 74.9804 110.019 75.3937 110.019C75.7133 110.019 75.9669 110.072 76.1544 110.179C76.344 110.283 76.4889 110.402 76.589 110.537C76.6913 110.669 76.7702 110.777 76.8256 110.863H76.9023V110.083H77.631V115.133C77.631 115.554 77.5351 115.897 77.3433 116.162C77.1537 116.428 76.898 116.623 76.5763 116.747C76.2567 116.872 75.9008 116.935 75.5088 116.935ZM75.4832 114.238C75.7858 114.238 76.0415 114.168 76.2503 114.03C76.4591 113.891 76.6178 113.692 76.7265 113.432C76.8351 113.172 76.8895 112.861 76.8895 112.499C76.8895 112.145 76.8362 111.833 76.7297 111.563C76.6231 111.292 76.4655 111.08 76.2567 110.927C76.0479 110.773 75.79 110.696 75.4832 110.696C75.1636 110.696 74.8973 110.777 74.6842 110.939C74.4733 111.101 74.3145 111.319 74.208 111.591C74.1036 111.864 74.0514 112.167 74.0514 112.499C74.0514 112.84 74.1047 113.141 74.2112 113.404C74.3199 113.663 74.4797 113.868 74.6906 114.017C74.9037 114.164 75.1679 114.238 75.4832 114.238ZM79.0116 114.992V110.083H79.7403V110.824H79.7915C79.881 110.581 80.0429 110.384 80.2773 110.233C80.5116 110.082 80.7758 110.006 81.0699 110.006C81.1253 110.006 81.1945 110.007 81.2776 110.009C81.3607 110.011 81.4236 110.015 81.4662 110.019V110.786C81.4406 110.78 81.382 110.77 81.2904 110.757C81.2009 110.742 81.1061 110.735 81.006 110.735C80.7673 110.735 80.5542 110.785 80.3667 110.885C80.1814 110.983 80.0344 111.119 79.9257 111.294C79.8192 111.467 79.7659 111.664 79.7659 111.885V114.992H79.0116ZM84.2691 115.094C83.7961 115.094 83.3881 114.99 83.045 114.781C82.7041 114.57 82.441 114.276 82.2556 113.899C82.0724 113.52 81.9807 113.079 81.9807 112.576C81.9807 112.073 82.0724 111.63 82.2556 111.246C82.441 110.861 82.6988 110.56 83.029 110.345C83.3614 110.128 83.7492 110.019 84.1924 110.019C84.4481 110.019 84.7006 110.062 84.9498 110.147C85.1991 110.232 85.4261 110.37 85.6306 110.562C85.8351 110.752 85.9981 111.003 86.1196 111.317C86.241 111.63 86.3018 112.015 86.3018 112.473V112.793H82.5177V112.141H85.5347C85.5347 111.864 85.4793 111.617 85.3685 111.4C85.2599 111.182 85.1043 111.011 84.9019 110.885C84.7016 110.759 84.4651 110.696 84.1924 110.696C83.892 110.696 83.632 110.771 83.4126 110.92C83.1952 111.067 83.028 111.259 82.9108 111.495C82.7936 111.732 82.735 111.986 82.735 112.256V112.691C82.735 113.062 82.7989 113.376 82.9268 113.634C83.0567 113.889 83.2368 114.084 83.4669 114.219C83.697 114.351 83.9644 114.417 84.2691 114.417C84.4672 114.417 84.6462 114.389 84.806 114.334C84.968 114.276 85.1075 114.191 85.2247 114.078C85.3419 113.963 85.4324 113.82 85.4964 113.65L86.2251 113.854C86.1484 114.101 86.0194 114.319 85.8383 114.506C85.6572 114.692 85.4335 114.836 85.1672 114.941C84.9008 115.043 84.6015 115.094 84.2691 115.094ZM90.9264 111.182L90.2489 111.374C90.2062 111.261 90.1434 111.151 90.0603 111.045C89.9793 110.936 89.8685 110.847 89.7279 110.776C89.5873 110.706 89.4072 110.671 89.1878 110.671C88.8873 110.671 88.637 110.74 88.4367 110.879C88.2386 111.015 88.1395 111.189 88.1395 111.4C88.1395 111.587 88.2077 111.735 88.344 111.844C88.4804 111.953 88.6935 112.043 88.9832 112.116L89.7119 112.294C90.1508 112.401 90.4779 112.564 90.6931 112.783C90.9083 113.001 91.0159 113.281 91.0159 113.624C91.0159 113.905 90.9349 114.157 90.773 114.378C90.6132 114.6 90.3895 114.775 90.1018 114.902C89.8142 115.03 89.4797 115.094 89.0983 115.094C88.5976 115.094 88.1832 114.986 87.855 114.768C87.5269 114.551 87.3192 114.233 87.2318 113.816L87.9477 113.637C88.0159 113.901 88.1448 114.099 88.3344 114.231C88.5262 114.363 88.7765 114.429 89.0855 114.429C89.4371 114.429 89.7162 114.355 89.9229 114.206C90.1317 114.054 90.2361 113.873 90.2361 113.662C90.2361 113.492 90.1764 113.349 90.0571 113.234C89.9378 113.117 89.7545 113.03 89.5074 112.972L88.6892 112.78C88.2396 112.674 87.9094 112.509 87.6984 112.285C87.4896 112.059 87.3852 111.777 87.3852 111.438C87.3852 111.161 87.463 110.916 87.6185 110.703C87.7762 110.49 87.9903 110.323 88.2609 110.201C88.5337 110.08 88.8426 110.019 89.1878 110.019C89.6736 110.019 90.055 110.125 90.3319 110.339C90.6111 110.552 90.8092 110.833 90.9264 111.182ZM95.6286 111.182L94.951 111.374C94.9084 111.261 94.8455 111.151 94.7624 111.045C94.6815 110.936 94.5707 110.847 94.43 110.776C94.2894 110.706 94.1094 110.671 93.8899 110.671C93.5895 110.671 93.3391 110.74 93.1389 110.879C92.9407 111.015 92.8416 111.189 92.8416 111.4C92.8416 111.587 92.9098 111.735 93.0462 111.844C93.1825 111.953 93.3956 112.043 93.6854 112.116L94.4141 112.294C94.853 112.401 95.18 112.564 95.3952 112.783C95.6104 113.001 95.718 113.281 95.718 113.624C95.718 113.905 95.6371 114.157 95.4751 114.378C95.3153 114.6 95.0916 114.775 94.804 114.902C94.5163 115.03 94.1818 115.094 93.8004 115.094C93.2997 115.094 92.8853 114.986 92.5572 114.768C92.2291 114.551 92.0213 114.233 91.934 113.816L92.6499 113.637C92.718 113.901 92.8469 114.099 93.0366 114.231C93.2283 114.363 93.4787 114.429 93.7876 114.429C94.1392 114.429 94.4183 114.355 94.625 114.206C94.8338 114.054 94.9382 113.873 94.9382 113.662C94.9382 113.492 94.8786 113.349 94.7592 113.234C94.6399 113.117 94.4567 113.03 94.2095 112.972L93.3913 112.78C92.9418 112.674 92.6115 112.509 92.4006 112.285C92.1918 112.059 92.0874 111.777 92.0874 111.438C92.0874 111.161 92.1651 110.916 92.3207 110.703C92.4783 110.49 92.6925 110.323 92.9631 110.201C93.2358 110.08 93.5447 110.019 93.8899 110.019C94.3757 110.019 94.7571 110.125 95.0341 110.339C95.3132 110.552 95.5114 110.833 95.6286 111.182ZM101.673 108.446V114.992H100.88V109.277H100.842L99.2441 110.339V109.533L100.88 108.446H101.673ZM105.69 115.081C105.209 115.081 104.799 114.95 104.46 114.688C104.121 114.424 103.862 114.042 103.683 113.541C103.504 113.038 103.415 112.431 103.415 111.719C103.415 111.012 103.504 110.408 103.683 109.907C103.864 109.404 104.124 109.021 104.463 108.757C104.804 108.49 105.213 108.357 105.69 108.357C106.168 108.357 106.576 108.49 106.915 108.757C107.255 109.021 107.515 109.404 107.694 109.907C107.875 110.408 107.966 111.012 107.966 111.719C107.966 112.431 107.877 113.038 107.698 113.541C107.519 114.042 107.26 114.424 106.921 114.688C106.582 114.95 106.172 115.081 105.69 115.081ZM105.69 114.378C106.168 114.378 106.538 114.148 106.803 113.688C107.067 113.228 107.199 112.571 107.199 111.719C107.199 111.152 107.138 110.67 107.017 110.271C106.897 109.873 106.725 109.569 106.499 109.361C106.275 109.152 106.006 109.047 105.69 109.047C105.217 109.047 104.848 109.281 104.581 109.747C104.315 110.212 104.182 110.869 104.182 111.719C104.182 112.286 104.242 112.768 104.361 113.164C104.48 113.56 104.652 113.862 104.875 114.068C105.101 114.275 105.373 114.378 105.69 114.378ZM112.517 113.765V113.419C112.517 113.181 112.566 112.962 112.664 112.764C112.764 112.564 112.909 112.404 113.099 112.285C113.291 112.163 113.523 112.103 113.796 112.103C114.073 112.103 114.305 112.163 114.492 112.285C114.68 112.404 114.821 112.564 114.917 112.764C115.013 112.962 115.061 113.181 115.061 113.419V113.765C115.061 114.003 115.012 114.223 114.914 114.423C114.818 114.621 114.676 114.781 114.486 114.902C114.298 115.022 114.068 115.081 113.796 115.081C113.519 115.081 113.285 115.022 113.096 114.902C112.906 114.781 112.762 114.621 112.664 114.423C112.566 114.223 112.517 114.003 112.517 113.765ZM113.169 113.419V113.765C113.169 113.963 113.216 114.141 113.31 114.298C113.404 114.454 113.565 114.532 113.796 114.532C114.019 114.532 114.177 114.454 114.269 114.298C114.362 114.141 114.409 113.963 114.409 113.765V113.419C114.409 113.221 114.364 113.044 114.275 112.889C114.185 112.731 114.026 112.652 113.796 112.652C113.572 112.652 113.411 112.731 113.313 112.889C113.217 113.044 113.169 113.221 113.169 113.419ZM109.257 110.019V109.674C109.257 109.435 109.306 109.217 109.404 109.019C109.504 108.818 109.649 108.658 109.839 108.539C110.031 108.418 110.263 108.357 110.536 108.357C110.813 108.357 111.045 108.418 111.232 108.539C111.42 108.658 111.562 108.818 111.657 109.019C111.753 109.217 111.801 109.435 111.801 109.674V110.019C111.801 110.258 111.752 110.477 111.654 110.677C111.558 110.875 111.416 111.035 111.226 111.157C111.038 111.276 110.808 111.336 110.536 111.336C110.259 111.336 110.025 111.276 109.836 111.157C109.646 111.035 109.502 110.875 109.404 110.677C109.306 110.477 109.257 110.258 109.257 110.019ZM109.909 109.674V110.019C109.909 110.217 109.956 110.395 110.05 110.553C110.144 110.708 110.305 110.786 110.536 110.786C110.759 110.786 110.917 110.708 111.009 110.553C111.102 110.395 111.149 110.217 111.149 110.019V109.674C111.149 109.476 111.104 109.299 111.015 109.143C110.926 108.986 110.766 108.907 110.536 108.907C110.312 108.907 110.151 108.986 110.053 109.143C109.957 109.299 109.909 109.476 109.909 109.674ZM109.5 114.992L114 108.446H114.729L110.229 114.992H109.5Z" fill="#5D6063"/>
<path d="M72.4779 60.0632C71.9913 60.0632 71.5513 59.9798 71.1579 59.8132C70.7713 59.6465 70.4646 59.4065 70.2379 59.0932C70.0113 58.7798 69.8946 58.4098 69.8879 57.9832H71.3879C71.4079 58.2698 71.5079 58.4965 71.6879 58.6632C71.8746 58.8298 72.1279 58.9132 72.4479 58.9132C72.7746 58.9132 73.0313 58.8365 73.2179 58.6832C73.4046 58.5232 73.4979 58.3165 73.4979 58.0632C73.4979 57.8565 73.4346 57.6865 73.3079 57.5532C73.1813 57.4198 73.0213 57.3165 72.8279 57.2432C72.6413 57.1632 72.3813 57.0765 72.0479 56.9832C71.5946 56.8498 71.2246 56.7198 70.9379 56.5932C70.6579 56.4598 70.4146 56.2632 70.2079 56.0032C70.0079 55.7365 69.9079 55.3832 69.9079 54.9432C69.9079 54.5298 70.0113 54.1698 70.2179 53.8632C70.4246 53.5565 70.7146 53.3232 71.0879 53.1632C71.4613 52.9965 71.8879 52.9132 72.3679 52.9132C73.0879 52.9132 73.6713 53.0898 74.1179 53.4432C74.5713 53.7898 74.8213 54.2765 74.8679 54.9032H73.3279C73.3146 54.6632 73.2113 54.4665 73.0179 54.3132C72.8313 54.1532 72.5813 54.0732 72.2679 54.0732C71.9946 54.0732 71.7746 54.1432 71.6079 54.2832C71.4479 54.4232 71.3679 54.6265 71.3679 54.8932C71.3679 55.0798 71.4279 55.2365 71.5479 55.3632C71.6746 55.4832 71.8279 55.5832 72.0079 55.6632C72.1946 55.7365 72.4546 55.8232 72.7879 55.9232C73.2413 56.0565 73.6113 56.1898 73.8979 56.3232C74.1846 56.4565 74.4313 56.6565 74.6379 56.9232C74.8446 57.1898 74.9479 57.5398 74.9479 57.9732C74.9479 58.3465 74.8513 58.6932 74.6579 59.0132C74.4646 59.3332 74.1813 59.5898 73.8079 59.7832C73.4346 59.9698 72.9913 60.0632 72.4779 60.0632ZM77.5617 54.1432V55.8932H79.9117V57.0032H77.5617V58.8532H80.2117V59.9932H76.1617V53.0032H80.2117V54.1432H77.5617ZM87.4539 59.9932H86.0539L82.8839 55.2032V59.9932H81.4839V53.0032H82.8839L86.0539 57.8032V53.0032H87.4539V59.9932ZM91.2775 53.0132C92.0108 53.0132 92.6541 53.1565 93.2075 53.4432C93.7675 53.7298 94.1975 54.1398 94.4975 54.6732C94.8041 55.1998 94.9575 55.8132 94.9575 56.5132C94.9575 57.2132 94.8041 57.8265 94.4975 58.3532C94.1975 58.8732 93.7675 59.2765 93.2075 59.5632C92.6541 59.8498 92.0108 59.9932 91.2775 59.9932H88.8375V53.0132H91.2775ZM91.2275 58.8032C91.9608 58.8032 92.5275 58.6032 92.9275 58.2032C93.3275 57.8032 93.5275 57.2398 93.5275 56.5132C93.5275 55.7865 93.3275 55.2198 92.9275 54.8132C92.5275 54.3998 91.9608 54.1932 91.2275 54.1932H90.2375V58.8032H91.2275Z" fill="#5D6063"/>
<path d="M48.476 83.2546C48.5426 81.9213 49.0093 80.8946 49.876 80.1746C50.756 79.4413 51.9093 79.0746 53.336 79.0746C54.3093 79.0746 55.1426 79.248 55.836 79.5946C56.5293 79.928 57.0493 80.388 57.396 80.9746C57.756 81.548 57.936 82.2013 57.936 82.9346C57.936 83.7746 57.716 84.488 57.276 85.0746C56.8493 85.648 56.336 86.0346 55.736 86.2346V86.3146C56.5093 86.5546 57.1093 86.9813 57.536 87.5946C57.976 88.208 58.196 88.9946 58.196 89.9546C58.196 90.7546 58.0093 91.468 57.636 92.0946C57.276 92.7213 56.736 93.2146 56.016 93.5746C55.3093 93.9213 54.456 94.0946 53.456 94.0946C51.9493 94.0946 50.7226 93.7146 49.776 92.9546C48.8293 92.1946 48.3293 91.0746 48.276 89.5946H50.996C51.0226 90.248 51.2426 90.7746 51.656 91.1746C52.0826 91.5613 52.6626 91.7546 53.396 91.7546C54.076 91.7546 54.596 91.568 54.956 91.1946C55.3293 90.808 55.516 90.3146 55.516 89.7146C55.516 88.9146 55.2626 88.3413 54.756 87.9946C54.2493 87.648 53.4626 87.4746 52.396 87.4746H51.816V85.1746H52.396C54.2893 85.1746 55.236 84.5413 55.236 83.2746C55.236 82.7013 55.0626 82.2546 54.716 81.9346C54.3826 81.6146 53.896 81.4546 53.256 81.4546C52.6293 81.4546 52.1426 81.628 51.796 81.9746C51.4626 82.308 51.2693 82.7346 51.216 83.2546H48.476ZM70.2086 81.8346H63.7286V85.2546C64.0086 84.908 64.4086 84.628 64.9286 84.4146C65.4486 84.188 66.002 84.0746 66.5886 84.0746C67.6553 84.0746 68.5286 84.308 69.2086 84.7746C69.8886 85.2413 70.382 85.8413 70.6886 86.5746C70.9953 87.2946 71.1486 88.068 71.1486 88.8946C71.1486 90.428 70.7086 91.6613 69.8286 92.5946C68.962 93.528 67.722 93.9946 66.1086 93.9946C64.5886 93.9946 63.3753 93.6146 62.4686 92.8546C61.562 92.0946 61.0486 91.1013 60.9286 89.8746H63.6486C63.7686 90.408 64.0353 90.8346 64.4486 91.1546C64.8753 91.4746 65.4153 91.6346 66.0686 91.6346C66.8553 91.6346 67.4486 91.388 67.8486 90.8946C68.2486 90.4013 68.4486 89.748 68.4486 88.9346C68.4486 88.108 68.242 87.4813 67.8286 87.0546C67.4286 86.6146 66.8353 86.3946 66.0486 86.3946C65.4886 86.3946 65.022 86.5346 64.6486 86.8146C64.2753 87.0946 64.0086 87.468 63.8486 87.9346H61.1686V79.3746H70.2086V81.8346ZM76.6597 91.0546L74.3197 96.6746H72.5197L73.8197 91.0546H76.6597ZM88.1579 81.8346H81.6779V85.2546C81.9579 84.908 82.3579 84.628 82.8779 84.4146C83.3979 84.188 83.9512 84.0746 84.5379 84.0746C85.6045 84.0746 86.4779 84.308 87.1579 84.7746C87.8379 85.2413 88.3312 85.8413 88.6379 86.5746C88.9445 87.2946 89.0979 88.068 89.0979 88.8946C89.0979 90.428 88.6579 91.6613 87.7779 92.5946C86.9112 93.528 85.6712 93.9946 84.0579 93.9946C82.5379 93.9946 81.3245 93.6146 80.4179 92.8546C79.5112 92.0946 78.9979 91.1013 78.8779 89.8746H81.5979C81.7179 90.408 81.9845 90.8346 82.3979 91.1546C82.8245 91.4746 83.3645 91.6346 84.0179 91.6346C84.8045 91.6346 85.3979 91.388 85.7979 90.8946C86.1979 90.4013 86.3979 89.748 86.3979 88.9346C86.3979 88.108 86.1912 87.4813 85.7779 87.0546C85.3779 86.6146 84.7845 86.3946 83.9979 86.3946C83.4379 86.3946 82.9712 86.5346 82.5979 86.8146C82.2245 87.0946 81.9579 87.468 81.7979 87.9346H79.1179V79.3746H88.1579V81.8346ZM91.2289 86.5146C91.2289 84.208 91.6423 82.4013 92.4689 81.0946C93.3089 79.788 94.6956 79.1346 96.629 79.1346C98.5623 79.1346 99.9423 79.788 100.769 81.0946C101.609 82.4013 102.029 84.208 102.029 86.5146C102.029 88.8346 101.609 90.6546 100.769 91.9746C99.9423 93.2946 98.5623 93.9546 96.629 93.9546C94.6956 93.9546 93.3089 93.2946 92.4689 91.9746C91.6423 90.6546 91.2289 88.8346 91.2289 86.5146ZM99.269 86.5146C99.269 85.528 99.2023 84.7013 99.069 84.0346C98.949 83.3546 98.6956 82.8013 98.309 82.3746C97.9356 81.948 97.3756 81.7346 96.629 81.7346C95.8823 81.7346 95.3156 81.948 94.9289 82.3746C94.5556 82.8013 94.3023 83.3546 94.1689 84.0346C94.0489 84.7013 93.9889 85.528 93.9889 86.5146C93.9889 87.528 94.0489 88.3813 94.1689 89.0746C94.2889 89.7546 94.5423 90.308 94.9289 90.7346C95.3156 91.148 95.8823 91.3546 96.629 91.3546C97.3756 91.3546 97.9423 91.148 98.329 90.7346C98.7156 90.308 98.969 89.7546 99.089 89.0746C99.209 88.3813 99.269 87.528 99.269 86.5146ZM104.159 86.5146C104.159 84.208 104.572 82.4013 105.399 81.0946C106.239 79.788 107.625 79.1346 109.559 79.1346C111.492 79.1346 112.872 79.788 113.699 81.0946C114.539 82.4013 114.959 84.208 114.959 86.5146C114.959 88.8346 114.539 90.6546 113.699 91.9746C112.872 93.2946 111.492 93.9546 109.559 93.9546C107.625 93.9546 106.239 93.2946 105.399 91.9746C104.572 90.6546 104.159 88.8346 104.159 86.5146ZM112.199 86.5146C112.199 85.528 112.132 84.7013 111.999 84.0346C111.879 83.3546 111.625 82.8013 111.239 82.3746C110.865 81.948 110.305 81.7346 109.559 81.7346C108.812 81.7346 108.245 81.948 107.859 82.3746C107.485 82.8013 107.232 83.3546 107.099 84.0346C106.979 84.7013 106.919 85.528 106.919 86.5146C106.919 87.528 106.979 88.3813 107.099 89.0746C107.219 89.7546 107.472 90.308 107.859 90.7346C108.245 91.148 108.812 91.3546 109.559 91.3546C110.305 91.3546 110.872 91.148 111.259 90.7346C111.645 90.308 111.899 89.7546 112.019 89.0746C112.139 88.3813 112.199 87.528 112.199 86.5146Z" fill="black"/>
<path d="M91.3789 30.9934C91.3789 28.7843 89.588 26.9934 87.3789 26.9934H83.3789V42.9934H87.3789C89.588 42.9934 91.3789 41.2025 91.3789 38.9934V30.9934Z" fill="#C4EEF8"/>
<path d="M85.3774 25.9963C85.3774 25.4441 84.9297 24.9963 84.3774 24.9963C83.8252 24.9963 83.3774 25.4441 83.3774 25.9963V43.9963C83.3774 44.5486 83.8252 44.9963 84.3774 44.9963C84.9297 44.9963 85.3774 44.5486 85.3774 43.9963V25.9963Z" fill="#3AC4E5"/>
<path d="M73.3779 30.9958C73.3779 28.7867 75.1688 26.9958 77.3779 26.9958H81.3779V42.9958H77.3779C75.1688 42.9958 73.3779 41.205 73.3779 38.9958V30.9958Z" fill="#C4EEF8"/>
<path d="M76.377 32.4946C76.377 31.6662 77.0485 30.9946 77.877 30.9946C78.7054 30.9946 79.377 31.6662 79.377 32.4946V38.4946C79.377 39.3231 78.7054 39.9946 77.877 39.9946C77.0485 39.9946 76.377 39.3231 76.377 38.4946V32.4946Z" fill="#3AC4E5"/>
<path d="M53.375 153.492C53.375 153.492 57.9219 140.992 64.875 140.992C73.375 140.992 76.623 154.305 86.875 151.992C96.1751 149.893 93.875 136.492 100.375 134.992C104.407 134.061 110.375 138.492 110.375 138.492" stroke="#3AC4E5" stroke-linecap="round"/>
<circle cx="101.376" cy="134.991" r="2.5" fill="#3AC4E5" stroke="white"/>
</svg>
