<svg width="480" height="251" viewBox="0 0 480 251" fill="none" xmlns="http://www.w3.org/2000/svg">
<rect width="480" height="251" rx="10" transform="matrix(-1 0 0 1 480 0)" fill="#BBD7E7"/>
<path fill-rule="evenodd" clip-rule="evenodd" d="M25.1747 157.266C54.819 158.35 88.3167 161.471 121.536 166.245C178.851 174.482 213.828 181.005 264.692 192.943C275.792 195.549 293.157 199.563 303.281 201.865C326.218 207.079 335.583 209.427 351.074 213.845C369.598 219.129 377.064 222.263 383.807 227.585C386.228 229.495 386.788 230.197 384.762 228.781C375.901 222.586 351.409 215.303 304.279 204.849C294.216 202.617 279.745 199.378 272.122 197.653C224.126 186.79 196.335 181.785 144.49 174.663C106.051 169.383 88.4198 167.462 58.9955 165.349C39.8521 163.974 15.8275 162.869 16.5255 163.396C17.1881 163.896 44.3259 167.645 73.8544 171.315C81.7219 172.293 94.2966 173.873 101.798 174.826C109.3 175.779 118.781 176.964 122.867 177.459C143.497 179.962 176.419 184.367 205.589 188.53C269.94 197.712 303.683 205.427 336.326 218.423C350.21 223.95 352.626 225.42 352.626 228.339C352.626 232.516 351.312 232.395 322.576 225.568C263.348 211.498 205.258 203.382 145.377 200.812C111.874 199.374 61.343 199.73 62.3953 201.396C62.651 201.801 109.068 210.713 135.286 215.391C154.131 218.753 176.543 223.402 202.152 229.261C220.991 233.571 247.384 241.209 253.098 244.004C255.472 245.165 256.385 247.67 255.183 249.724C253.89 251.932 249.298 251.459 227.212 246.845C178.667 236.703 152.337 233.278 113.552 232.058C107.27 231.861 99.3864 231.452 96.032 231.149C88.9398 230.509 78.9916 230.444 73.3255 230.999C71.1439 231.213 69.3264 231.336 69.2865 231.273C69.2213 231.17 74.8074 230.11 88.2698 227.671C96.8759 226.112 98.2939 226.011 113.774 225.841C140.94 225.544 157.641 227.027 186.023 232.259C199.717 234.784 198.041 234.214 180.75 230.469C166.352 227.349 148.006 223.709 134.843 221.359C118.405 218.424 94.1551 213.935 88.3807 212.758C85.5753 212.186 78.1902 210.682 71.9694 209.416C52.8964 205.534 51.4099 205.017 50.7887 202.036C49.9492 198.009 52.7139 196.489 63.2092 195.21C77.2755 193.496 125.177 193.847 158.24 195.907C218.453 199.658 267.932 207.322 331.89 222.802C333.964 223.304 332.196 222.455 328.096 220.98C287.535 206.389 250.611 199.731 122.756 183.955C76.229 178.214 27.5553 171.354 12.8662 168.468C1.87543 166.308 -0.949524 164.472 0.259155 160.271C1.15756 157.148 5.99756 156.564 25.1747 157.266ZM195.776 234.056C195.928 234.154 196.177 234.154 196.33 234.056C196.482 233.959 196.358 233.879 196.053 233.879C195.748 233.879 195.623 233.959 195.776 234.056Z" fill="#93BFD8"/>
</svg>
