<svg width="270" height="280" viewBox="0 0 270 280" fill="none" xmlns="http://www.w3.org/2000/svg">
<path fill-rule="evenodd" clip-rule="evenodd" d="M44.9619 201.403C75.5529 160.15 99.1321 135.138 151.279 88.6251C155.865 84.5343 163.028 78.1343 167.198 74.4029C201.546 43.6624 258.7 7.24561 281.027 1.87351C285.657 0.759343 296.466 0.576109 297.903 1.5877C298.14 1.75494 297.596 1.73583 295.219 1.49354C284.258 0.376283 268.899 7.2698 236.316 27.9312C217.068 40.1356 197.389 54.4249 182.419 67.0672C170.991 76.7171 119.411 124.37 118.234 126.366C117.992 126.775 120.119 125.071 122.96 122.578C153.481 95.7979 164.379 87.0358 185.174 72.564C201.285 61.3507 211.543 55.34 239.131 40.9488C249.51 35.5342 249.174 35.665 250.625 36.4849C254.302 38.5621 253.612 39.7053 245.723 44.6002C192.23 77.7978 165.001 100.916 130.191 142.69C120.826 153.93 90.857 194.609 92.0966 194.399C92.8047 194.28 104.107 183.657 122.714 165.622C164.344 125.271 195.825 102.863 238.055 83.5224C249.764 78.1595 252.582 77.7023 255.208 80.7385C257.981 83.9448 253.374 88.4568 227.329 108.038C188.321 137.364 175.107 149.149 150.046 176.958C144.221 183.423 134.807 194.945 135.422 194.859C135.593 194.835 143.265 188.793 152.471 181.432C175.503 163.014 190.898 151.629 192.395 151.907C194.703 152.335 197.057 154.338 197.084 155.896C197.116 157.795 194.118 160.99 186.123 167.572C168.786 181.847 153.658 197.661 133.49 222.592C130.471 226.323 126.849 230.592 125.441 232.078C122.166 235.537 117.867 241.647 116.44 244.872C115.828 246.253 115.065 247.969 114.744 248.685C113.527 251.401 116.368 241.011 117.976 236.862C122.009 226.463 129.64 214.577 140.511 201.764C143.005 198.825 144.993 196.342 144.929 196.248C144.795 196.049 141.7 198.628 126.91 211.266C115.57 220.955 115.227 221.158 112.415 219.852C110.63 219.023 108.948 217.411 108.467 216.07C108.104 215.055 120.481 197.958 127.927 189.188C145.78 168.163 155.898 157.485 169.867 144.928C184 132.223 194.186 124.344 220.859 105.481C237.098 93.9969 245.401 87.7756 247.71 85.3623L249.141 83.8664L246.336 84.9221C237.684 88.1794 212.645 101.712 199.539 110.215C172.314 127.876 155.929 141.509 122.425 174.379C94.2738 201.998 87.956 207.265 84.7829 205.764C81.3638 204.148 80.2172 201.931 81.1038 198.651C82.3127 194.178 113.58 150.468 125.985 135.908C138.15 121.631 153.654 105.42 162.737 97.4825C163.702 96.6397 164.66 95.6539 164.866 95.2919C166.384 92.6308 133.476 120.78 115.522 137.501C95.8543 155.82 81.2628 170.994 62.2574 192.893C49.9692 207.053 23.2101 246.442 14.1799 263.664C5.81493 279.617 5.47197 280.159 3.99714 279.783C2.45889 279.39 1.55007 278.769 0.725879 277.549C-0.323103 275.995 1.08081 272.388 5.56714 265.11C7.21804 262.432 10.5741 256.316 13.0245 251.519C15.4754 246.722 18.5547 240.826 19.8672 238.417C22.3439 233.871 37.899 210.928 44.9619 201.403ZM112.157 132.568C112.368 132.538 112.543 132.306 112.546 132.051C112.549 131.797 112.377 131.822 112.163 132.106C111.949 132.39 111.946 132.598 112.157 132.568ZM114.255 130.618C114.518 130.479 114.8 130.084 114.882 129.742C114.964 129.399 114.749 129.513 114.405 129.995C114.06 130.477 113.993 130.758 114.255 130.618ZM116.4 128.567C116.694 128.375 117.001 127.939 117.083 127.598C117.164 127.257 116.924 127.414 116.549 127.947C116.174 128.48 116.107 128.759 116.4 128.567ZM165.966 94.551C166.23 94.4106 166.481 94.0537 166.524 93.7581C166.567 93.4623 166.351 93.577 166.044 94.0131C165.737 94.4491 165.702 94.691 165.966 94.551ZM167.773 92.9245C167.987 92.8941 168.127 92.6959 168.083 92.484C168.04 92.2727 167.865 92.2977 167.695 92.54C167.524 92.7822 167.56 92.9554 167.773 92.9245ZM114.233 250.631C114.276 250.843 114.137 251.041 113.923 251.072C113.709 251.102 113.674 250.929 113.844 250.687C114.015 250.445 114.19 250.42 114.233 250.631Z" fill="#FEB59E"/>
</svg>
