<svg width="31" height="31" viewBox="0 0 31 31" fill="none" xmlns="http://www.w3.org/2000/svg">
<path d="M10.0039 30.998H3.33724C1.50391 30.998 0.00390625 29.498 0.00390625 27.6647V4.33138C0.00390625 2.49805 1.50391 0.998047 3.33724 0.998047H10.0039C11.8372 0.998047 13.3372 2.49805 13.3372 4.33138V27.6647C13.3372 29.498 11.8372 30.998 10.0039 30.998ZM20.0039 30.998H26.6706C28.5039 30.998 30.0039 29.498 30.0039 27.6647V19.3314C30.0039 17.498 28.5039 15.998 26.6706 15.998H20.0039C18.1706 15.998 16.6706 17.498 16.6706 19.3314V27.6647C16.6706 29.498 18.1706 30.998 20.0039 30.998ZM30.0039 9.33138V4.33138C30.0039 2.49805 28.5039 0.998047 26.6706 0.998047H20.0039C18.1706 0.998047 16.6706 2.49805 16.6706 4.33138V9.33138C16.6706 11.1647 18.1706 12.6647 20.0039 12.6647H26.6706C28.5039 12.6647 30.0039 11.1647 30.0039 9.33138Z" fill="white"/>
</svg>
