<svg width="27" height="31" viewBox="0 0 27 31" fill="none" xmlns="http://www.w3.org/2000/svg">
<path d="M9.12711 21.4095C8.34359 20.6273 7.72376 19.6999 7.30311 18.6804C6.88247 17.6609 6.66927 16.5693 6.67574 15.4682C6.6729 14.3671 6.89199 13.2765 7.32022 12.2601C7.74845 11.2437 8.37722 10.322 9.16976 9.54887C9.50925 9.25036 9.78358 8.88644 9.97595 8.4794C10.1683 8.07236 10.2747 7.63077 10.2885 7.18165C10.3024 6.73253 10.2234 6.28534 10.0564 5.86747C9.88948 5.44959 9.63806 5.06983 9.31758 4.75142C8.99709 4.43301 8.61428 4.18266 8.19258 4.0157C7.77088 3.84874 7.31917 3.76868 6.86511 3.78043C6.41104 3.79217 5.96418 3.89547 5.55188 4.08401C5.13958 4.27254 4.77052 4.54234 4.46729 4.87688C1.61913 7.67774 0.0122405 11.483 6.96416e-05 15.4558C-0.0121012 19.4286 1.57144 23.2434 4.40239 26.0613C4.70463 26.3954 5.07248 26.6651 5.48351 26.8539C5.89455 27.0428 6.34016 27.1469 6.79318 27.1598C7.2462 27.1728 7.69714 27.0943 8.11851 26.9292C8.53988 26.7641 8.92285 26.5159 9.24407 26.1996C9.5653 25.8834 9.81804 25.5057 9.98691 25.0897C10.1558 24.6736 10.2372 24.2279 10.2263 23.7797C10.2153 23.3315 10.1122 22.8902 9.92325 22.4827C9.73428 22.0752 9.46339 21.7101 9.12711 21.4095Z" fill="#FFDA00"/>
<path d="M9.17027 9.54836C10.7675 7.9842 12.9265 7.11029 15.174 7.1182C17.4215 7.12611 19.5741 8.01519 21.1601 9.59055C21.4612 9.92815 21.829 10.2012 22.2408 10.393C22.6526 10.5848 23.0998 10.6913 23.5547 10.7059C24.0096 10.7204 24.4627 10.6428 24.8862 10.4777C25.3097 10.3127 25.6946 10.0637 26.0172 9.74604C26.3398 9.42841 26.5933 9.04886 26.7622 8.63073C26.931 8.2126 27.0117 7.76472 26.9991 7.31463C26.9865 6.86454 26.881 6.42175 26.6891 6.01348C26.4971 5.60521 26.2228 5.2401 25.8829 4.94057C24.4864 3.54123 22.8241 2.42859 20.9916 1.66656C19.1591 0.904536 17.1924 0.508135 15.2046 0.500124C13.2168 0.492113 11.247 0.872651 9.40823 1.61988C7.5695 2.36711 5.89811 3.46632 4.49006 4.85436C4.14933 5.15134 3.87346 5.51397 3.67931 5.92007C3.48516 6.32617 3.37682 6.76718 3.36093 7.21613C3.34504 7.66508 3.42192 8.11251 3.58688 8.53104C3.75184 8.94958 4.0014 9.33042 4.32029 9.65024C4.63917 9.97007 5.02068 10.2222 5.44147 10.3911C5.86225 10.56 6.31345 10.6422 6.76746 10.6327C7.22147 10.6232 7.66874 10.5221 8.08189 10.3356C8.49505 10.1492 8.8654 9.88129 9.17027 9.54836Z" fill="#67B3FF"/>
<path d="M21.138 21.4512C20.3476 22.2278 19.4101 22.8426 18.3792 23.2603C17.3483 23.678 16.2442 23.8904 15.1301 23.8853C14.0164 23.887 12.9135 23.6688 11.886 23.2436C10.8586 22.8184 9.92718 22.1947 9.14637 21.409C8.84461 21.0732 8.47673 20.8018 8.06526 20.6115C7.65378 20.4212 7.20738 20.316 6.75337 20.3023C6.29936 20.2886 5.8473 20.3667 5.42488 20.5319C5.00245 20.6971 4.61855 20.9458 4.29667 21.2628C3.97479 21.5798 3.72172 21.9585 3.55294 22.3757C3.38416 22.7928 3.30323 23.2397 3.31511 23.6888C3.32698 24.138 3.43141 24.5801 3.62199 24.9879C3.81258 25.3958 4.08532 25.7609 4.4235 26.0608C5.82248 27.4601 7.48686 28.5725 9.32124 29.3342C11.1556 30.096 13.1239 30.4921 15.1134 30.4999C17.1028 30.5078 19.0742 30.1272 20.9147 29.3799C22.7552 28.6326 24.4284 27.5334 25.8386 26.1452C26.1502 25.8399 26.3979 25.4769 26.5677 25.0768C26.7374 24.6768 26.8258 24.2476 26.8279 23.8138C26.83 23.3799 26.7456 22.95 26.5797 22.5484C26.4138 22.1468 26.1695 21.7814 25.8609 21.4732C25.5522 21.165 25.1852 20.92 24.7809 20.752C24.3765 20.5841 23.9426 20.4967 23.5041 20.4946C23.0655 20.4926 22.6308 20.576 22.2249 20.7401C21.8189 20.9043 21.4496 21.1459 21.138 21.4512Z" fill="#EB5A68"/>
<path d="M9.16959 9.54847C8.70177 10.0107 8.10571 10.3251 7.45702 10.4517C6.80832 10.5783 6.13622 10.5115 5.52598 10.2597C4.91573 10.0079 4.39483 9.58249 4.02936 9.03741C3.66389 8.49233 3.47031 7.85215 3.47318 7.19808C3.47604 6.54401 3.67523 5.90551 4.04547 5.36359C4.41571 4.82167 4.94032 4.40073 5.55275 4.15419C6.16518 3.90764 6.83784 3.84659 7.4854 3.97878C8.13296 4.11096 8.72624 4.43043 9.18998 4.89666C9.8078 5.51779 10.1524 6.35534 10.1485 7.22672C10.1447 8.09811 9.79283 8.93267 9.16959 9.54847Z" fill="#47A1FF"/>
<path d="M9.10468 26.0606C8.63668 26.5227 8.0405 26.8368 7.39176 26.9632C6.74301 27.0895 6.07094 27.0225 5.4608 26.7704C4.85065 26.5184 4.32992 26.0928 3.96467 25.5476C3.59941 25.0023 3.40609 24.3621 3.40922 23.708C3.41235 23.0539 3.61179 22.4155 3.98224 21.8737C4.3527 21.332 4.87747 20.9112 5.49 20.6649C6.10253 20.4186 6.77521 20.3578 7.42272 20.4903C8.07022 20.6227 8.66338 20.9424 9.12694 21.4088C9.74451 22.0302 10.0887 22.8679 10.0846 23.7393C10.0804 24.6106 9.72818 25.4451 9.10468 26.0606Z" fill="#D5465F"/>
</svg>
