<svg width="40" height="30" viewBox="0 0 40 30" fill="none" xmlns="http://www.w3.org/2000/svg">
<path d="M33.5367 2.51249C31.0122 1.33875 28.3128 0.485722 25.4907 0C25.1441 0.622678 24.7392 1.46019 24.46 2.12643C21.4601 1.67811 18.4877 1.67811 15.5429 2.12643C15.2638 1.46019 14.8497 0.622678 14.5 0C11.6748 0.485722 8.97235 1.34188 6.44781 2.51871C1.35579 10.165 -0.0245681 17.6215 0.665615 24.972C4.04291 27.4782 7.31591 29.0007 10.5337 29.9969C11.3282 28.9104 12.0367 27.7553 12.6472 26.538C11.4846 26.099 10.3711 25.5573 9.319 24.9284C9.59811 24.7229 9.87114 24.5081 10.1349 24.287C16.5521 27.2696 23.5245 27.2696 29.8649 24.287C30.1318 24.5081 30.4048 24.7229 30.6809 24.9284C29.6257 25.5604 28.5091 26.1021 27.3466 26.5411C27.957 27.7553 28.6625 28.9135 29.46 30C32.6809 29.0037 35.9569 27.4813 39.3342 24.972C40.1441 16.4508 37.9508 9.06291 33.5367 2.51249ZM13.5214 20.4515C11.595 20.4515 10.0153 18.6644 10.0153 16.4882C10.0153 14.312 11.5613 12.5218 13.5214 12.5218C15.4816 12.5218 17.0613 14.3088 17.0275 16.4882C17.0306 18.6644 15.4816 20.4515 13.5214 20.4515ZM26.4785 20.4515C24.5521 20.4515 22.9723 18.6644 22.9723 16.4882C22.9723 14.312 24.5183 12.5218 26.4785 12.5218C28.4386 12.5218 30.0183 14.3088 29.9846 16.4882C29.9846 18.6644 28.4386 20.4515 26.4785 20.4515Z" fill="#23272A"/>
</svg>
