<svg width="27" height="31" viewBox="0 0 27 31" fill="none" xmlns="http://www.w3.org/2000/svg">
<path fill-rule="evenodd" clip-rule="evenodd" d="M20.3089 14.6759C20.5181 14.6499 20.7184 14.6485 20.9027 14.6759C21.0094 14.4199 21.0276 13.9789 20.9317 13.4985C20.7894 12.7845 20.5964 12.3525 20.1978 12.4199C19.7992 12.4872 19.7845 13.0045 19.9272 13.7182C20.0074 14.1199 20.1501 14.4632 20.3089 14.6759Z" fill="#231F20"/>
<path fill-rule="evenodd" clip-rule="evenodd" d="M16.889 15.2409C17.174 15.3719 17.3494 15.4589 17.4179 15.3829C17.4621 15.3356 17.4487 15.2452 17.3806 15.1289C17.2399 14.8886 16.9505 14.6446 16.6432 14.5076C16.0153 14.2246 15.2661 14.3186 14.6882 14.7532C14.4975 14.8996 14.3167 15.1022 14.3425 15.2252C14.3507 15.2649 14.3794 15.2949 14.4463 15.3049C14.6036 15.3236 15.1531 15.0329 15.7864 14.9922C16.2331 14.9636 16.6037 15.1099 16.889 15.2409Z" fill="#231F20"/>
<path fill-rule="evenodd" clip-rule="evenodd" d="M16.3167 15.5836C15.9451 15.6449 15.7404 15.7733 15.6089 15.8923C15.4968 15.9949 15.4274 16.1086 15.428 16.1883C15.4283 16.2263 15.4439 16.2483 15.4564 16.2593C15.4732 16.2749 15.4933 16.2836 15.5175 16.2836C15.6012 16.2836 15.7894 16.2046 15.7894 16.2046C16.3062 16.0109 16.6472 16.0346 16.985 16.0746C17.1716 16.0966 17.2601 16.1086 17.3008 16.0416C17.3129 16.0223 17.3276 15.9806 17.2903 15.9173C17.2034 15.7696 16.828 15.5199 16.3167 15.5836Z" fill="#231F20"/>
<path fill-rule="evenodd" clip-rule="evenodd" d="M19.1549 16.841C19.4071 16.9707 19.6847 16.9197 19.7751 16.7274C19.8656 16.535 19.7344 16.2737 19.4822 16.144C19.23 16.0144 18.9524 16.0653 18.862 16.2577C18.7715 16.4503 18.9027 16.7113 19.1549 16.841Z" fill="#231F20"/>
<path fill-rule="evenodd" clip-rule="evenodd" d="M20.7764 15.3581C20.5717 15.3544 20.4016 15.5898 20.3969 15.8841C20.3921 16.1784 20.5545 16.4194 20.7592 16.4231C20.9639 16.4268 21.134 16.1914 21.1387 15.8971C21.1435 15.6031 20.9811 15.3618 20.7764 15.3581Z" fill="#231F20"/>
<path fill-rule="evenodd" clip-rule="evenodd" d="M7.01533 20.6612C6.96439 20.5942 6.88065 20.6146 6.79946 20.6346C6.74279 20.6486 6.67879 20.6639 6.60842 20.6629C6.45782 20.6599 6.33014 20.5926 6.25851 20.4772C6.16522 20.3272 6.17063 20.1036 6.27347 19.8476L6.32155 19.7329C6.48584 19.3469 6.76062 18.7013 6.45209 18.0859C6.21966 17.6226 5.84077 17.3343 5.38515 17.2736C4.94767 17.2156 4.49746 17.3853 4.21026 17.7169C3.75718 18.2402 3.68618 18.9526 3.77374 19.2042C3.8059 19.2962 3.8562 19.3219 3.8925 19.3272C3.96955 19.3379 4.08354 19.2792 4.15486 19.0782L4.17524 19.0129C4.20708 18.9066 4.2663 18.7086 4.36341 18.5499C4.48058 18.3586 4.6627 18.2269 4.87667 18.1786C5.09445 18.1296 5.31733 18.1733 5.50391 18.3013C5.82135 18.5186 5.94361 18.9259 5.80798 19.3142C5.73793 19.5152 5.62394 19.8996 5.64909 20.2152C5.70004 20.8542 6.07543 21.1109 6.41261 21.1382C6.74056 21.1512 6.9698 20.9582 7.02775 20.8176C7.06182 20.7342 7.03316 20.6836 7.01438 20.6619" fill="#231F20"/>
<path fill-rule="evenodd" clip-rule="evenodd" d="M10.1345 8.92473C11.2044 7.63074 12.5209 6.50575 13.7006 5.87408C13.7413 5.85208 13.7846 5.89842 13.7627 5.94042C13.6691 6.11808 13.4885 6.49841 13.4315 6.78674C13.4226 6.83174 13.4694 6.86541 13.5057 6.83975C14.2396 6.31608 15.5161 5.75475 16.6359 5.68275C16.684 5.67975 16.7072 5.74408 16.669 5.77508C16.4986 5.91175 16.3124 6.10108 16.1764 6.29242C16.1532 6.32508 16.1752 6.37175 16.214 6.37208C17.0001 6.37808 18.1085 6.66608 18.8309 7.09041C18.8796 7.11908 18.8449 7.21807 18.7901 7.20507C17.6971 6.94274 15.908 6.74375 14.0492 7.21841C12.3901 7.64208 11.1235 8.2964 10.1998 8.99973C10.153 9.0354 10.0967 8.9704 10.1345 8.92473ZM15.462 21.462L15.4623 21.4627L15.4629 21.464L15.462 21.462ZM19.873 22.007C19.9049 21.993 19.9265 21.9553 19.923 21.9177C19.9185 21.8713 19.8791 21.8377 19.8348 21.8423C19.8348 21.8423 17.5522 22.196 15.3957 21.3697C15.6307 20.5703 16.2551 20.859 17.1991 20.9387C18.9006 21.045 20.4258 20.7847 21.5529 20.446C22.5294 20.1527 23.8122 19.574 24.8085 18.7507C25.1444 19.5233 25.2631 20.374 25.2631 20.374C25.2631 20.374 25.5233 20.3253 25.7407 20.4653C25.9461 20.5977 26.0967 20.8727 25.9939 21.584C25.7844 22.9127 25.245 23.9913 24.3382 24.9836C23.7861 25.6056 23.1162 26.1463 22.3495 26.5396C21.9423 26.7636 21.5089 26.9573 21.0508 27.1136C17.6325 28.2826 14.1333 26.9976 13.0055 24.2383C12.9154 24.031 12.8393 23.8137 12.7795 23.5867C12.299 21.7683 12.7069 19.5867 13.9824 18.2134C14.061 18.126 14.1412 18.0224 14.1412 17.8927C14.1412 17.7844 14.0753 17.67 14.0183 17.5887C13.572 16.911 12.0261 15.7564 12.3366 13.5217C12.5595 11.9164 13.9005 10.7857 15.1509 10.8527L15.4677 10.8717C16.0096 10.9054 16.4821 10.9781 16.9282 10.9977C17.6748 11.0317 18.346 10.9181 19.1413 10.2244C19.4094 9.99039 19.6247 9.78739 19.9886 9.72306C20.0268 9.71606 20.122 9.6804 20.3121 9.68973C20.5063 9.70073 20.691 9.7564 20.8569 9.87206C21.4943 10.3161 21.5847 11.3917 21.6178 12.1784C21.6366 12.6274 21.6885 13.714 21.7063 14.026C21.7468 14.7394 21.926 14.8397 22.2884 14.9647C22.4921 15.035 22.6813 15.0874 22.9602 15.1694C23.8039 15.4174 24.3041 15.669 24.6197 15.9924C24.8078 16.1944 24.8954 16.409 24.9225 16.6137C25.0218 17.3737 24.3589 18.3123 22.6036 19.1653C20.6849 20.0977 18.3571 20.3337 16.7489 20.146L16.1854 20.0793C14.899 19.898 14.1651 21.6383 14.9372 22.831C15.4349 23.5997 16.7903 24.0997 18.1464 24.1C21.2555 24.1003 23.6454 22.7103 24.5343 21.51L24.6053 21.404C24.6493 21.335 24.613 21.297 24.5585 21.336C23.8323 21.8563 20.6063 23.922 17.1555 23.3003C17.1555 23.3003 16.7362 23.228 16.3535 23.0723C16.0494 22.9483 15.4126 22.6417 15.3352 21.958C18.1199 22.8597 19.873 22.007 19.873 22.007ZM4.57757 15.0787C3.60901 15.2757 2.75539 15.8504 2.23354 16.6444C1.92151 16.372 1.34043 15.8447 1.23759 15.639C0.404349 13.9824 2.14693 10.7617 3.36448 8.94273C6.37333 4.44775 11.0856 1.04544 13.2669 1.66277C13.6216 1.76777 14.7962 3.19343 14.7962 3.19343C14.7962 3.19343 12.6155 4.46009 10.5934 6.22575C7.86852 8.42207 5.81072 11.6144 4.57757 15.0787ZM6.20489 22.6803C6.05843 22.7067 5.90879 22.717 5.75787 22.713C4.30057 22.672 2.72673 21.2987 2.5704 19.67C2.39751 17.8697 3.27628 16.4844 4.83197 16.1557C5.01791 16.1164 5.2427 16.0937 5.485 16.107C6.35677 16.157 7.64118 16.8577 7.93442 18.8457C8.19424 20.6063 7.78159 22.399 6.20489 22.6803ZM25.9442 19.4923C25.9318 19.446 25.8503 19.135 25.7385 18.76C25.6268 18.3847 25.5112 18.121 25.5112 18.121C25.9595 17.4187 25.9674 16.7904 25.9076 16.4347C25.8439 15.9937 25.6685 15.618 25.315 15.2294C24.9616 14.841 24.2385 14.443 23.2225 14.1444L22.6895 13.9894C22.687 13.9664 22.6615 12.6737 22.6386 12.1187C22.6217 11.7174 22.5889 11.0911 22.4033 10.4744C22.182 9.63939 21.7968 8.90873 21.3157 8.4414C22.6434 7.00074 23.4722 5.41342 23.4699 4.05209C23.4661 1.43377 20.3945 0.641445 16.6091 2.28244L15.8071 2.63877C15.8036 2.6351 14.3571 1.14944 14.3355 1.12944C10.0196 -2.81154 -3.47404 12.8907 0.839915 16.7044L1.78269 17.5407C1.53816 18.204 1.442 18.964 1.52065 19.781C1.62126 20.8307 2.13834 21.8367 2.97667 22.614C3.77235 23.352 4.8186 23.8193 5.83364 23.8183C7.51255 27.8686 11.3486 30.3533 15.8463 30.4933C20.6709 30.6433 24.7209 28.2733 26.418 24.016C26.5291 23.7173 27 22.371 27 21.1823C27 19.988 26.3549 19.4923 25.9442 19.4923Z" fill="#231F20"/>
</svg>
