<svg width="27" height="31" viewBox="0 0 27 31" fill="none" xmlns="http://www.w3.org/2000/svg">
<path d="M23.1081 6.26773C23.0865 6.11655 22.9574 6.03016 22.8499 6.03016C22.7423 6.03016 20.6122 5.98697 20.6122 5.98697C20.6122 5.98697 18.8264 4.25918 18.6543 4.06481C18.4821 3.89203 18.1379 3.93522 18.0088 3.97842C18.0088 3.97842 17.6645 4.0864 17.1051 4.25918C17.0191 3.95682 16.8684 3.58966 16.6748 3.20091C16.0508 1.99146 15.1041 1.34354 13.9853 1.34354C13.8993 1.34354 13.8347 1.34354 13.7486 1.36514C13.7056 1.32195 13.6841 1.27875 13.6411 1.25715C13.1462 0.738818 12.5222 0.47965 11.7692 0.501247C10.3276 0.544442 8.88606 1.60271 7.70268 3.46008C6.88508 4.77752 6.26112 6.41891 6.06748 7.69316C4.41075 8.21149 3.2489 8.57865 3.20587 8.57865C2.36675 8.83781 2.34523 8.85941 2.23765 9.65851C2.19462 10.2632 0 27.3035 0 27.3035L18.4176 30.4999L26.4 28.513C26.3785 28.513 23.1296 6.41891 23.1081 6.26773ZM16.1799 4.56154C15.7496 4.69113 15.2763 4.84231 14.7599 5.01509C14.7599 4.28078 14.6523 3.24411 14.3296 2.38021C15.4269 2.55299 15.9648 3.80564 16.1799 4.56154ZM13.7917 5.29585C12.8235 5.59822 11.7692 5.92218 10.7149 6.24614C11.0161 5.10148 11.5755 3.97842 12.264 3.22251C12.5222 2.94174 12.888 2.63938 13.2968 2.4666C13.7271 3.3089 13.8132 4.49675 13.7917 5.29585ZM11.8122 1.47313C12.1565 1.47313 12.4362 1.53792 12.6729 1.7107C12.2856 1.90507 11.8983 2.20744 11.554 2.59619C10.6288 3.58966 9.91882 5.12308 9.63911 6.61329C8.75696 6.89406 7.89633 7.15322 7.12175 7.39079C7.63814 5.03669 9.59608 1.53792 11.8122 1.47313Z" fill="#95BF47"/>
<path d="M22.8502 6.03037C22.7427 6.03037 20.6126 5.98718 20.6126 5.98718C20.6126 5.98718 18.8268 4.25939 18.6546 4.06502C18.5901 4.00023 18.504 3.95703 18.418 3.95703V30.5001L26.4004 28.5132C26.4004 28.5132 23.1515 6.41913 23.1299 6.26795C23.0869 6.11676 22.9578 6.03037 22.8502 6.03037Z" fill="#5E8E3E"/>
<path d="M13.9869 10.1554L13.0617 13.6326C13.0617 13.6326 12.029 13.1575 10.8026 13.2438C8.99524 13.3518 8.99524 14.4965 8.99524 14.7773C9.10282 16.3323 13.1693 16.6778 13.406 20.3278C13.5781 23.2002 11.8999 25.1656 9.44708 25.3167C6.52092 25.4679 4.90723 23.7401 4.90723 23.7401L5.53119 21.0837C5.53119 21.0837 7.16639 22.3147 8.45735 22.2283C9.29647 22.1851 9.6192 21.4724 9.57617 20.9973C9.44708 18.9671 6.13363 19.0967 5.91847 15.7491C5.74635 12.9415 7.5752 10.1122 11.6202 9.85307C13.1908 9.74508 13.9869 10.1554 13.9869 10.1554Z" fill="white"/>
</svg>
