<svg width="35" height="36" viewBox="0 0 35 36" fill="none" xmlns="http://www.w3.org/2000/svg">
<path d="M12.8329 0.5C10.8999 0.5 9.33317 2.06719 9.33317 3.99987C9.33271 4.45902 9.42286 4.91377 9.59849 5.33814C9.77412 5.76252 10.0318 6.14821 10.3568 6.47321C10.6817 6.7982 11.0677 7.05613 11.4925 7.23226C11.9174 7.4084 12.3728 7.49929 12.8329 7.49975H16.3332V3.99987C16.334 3.07253 15.9656 2.18284 15.3092 1.52651C14.6528 0.87017 13.7621 0.50093 12.8329 0.5ZM12.8329 9.833H3.49972C1.56676 9.833 0 11.4002 0 13.3335C0 15.2661 1.56676 16.8333 3.49972 16.8333H12.8335C14.7658 16.8333 16.3332 15.2661 16.3332 13.3335C16.3332 11.4002 14.7658 9.833 12.8329 9.833Z" fill="#36C5F0"/>
<path d="M34.9997 13.3335C34.9997 11.4002 33.4324 9.833 31.4994 9.833C29.5664 9.833 27.9997 11.4002 27.9997 13.3335V16.8333H31.4994C32.4286 16.8324 33.3193 16.4632 33.9757 15.8068C34.6321 15.1505 35.0005 14.2608 34.9997 13.3335ZM25.6665 13.3335V3.99987C25.6673 3.07253 25.299 2.18284 24.6426 1.52651C23.9861 0.87017 23.0954 0.50093 22.1662 0.5C20.2333 0.5 18.6665 2.06719 18.6665 3.99987V13.3329C18.6665 15.2667 20.2333 16.8339 22.1662 16.8339C23.0954 16.833 23.9861 16.4637 24.6426 15.8074C25.299 15.1511 25.6673 14.2614 25.6665 13.334" fill="#2EB67D"/>
<path d="M22.1662 35.4998C23.0954 35.4989 23.9861 35.1297 24.6426 34.4733C25.299 33.817 25.6673 32.9273 25.6665 32C25.6673 31.0726 25.299 30.1829 24.6426 29.5266C23.9861 28.8703 23.0954 28.501 22.1662 28.5001H18.6665V32C18.6665 33.9326 20.2333 35.4998 22.1662 35.4998ZM22.1662 26.1668H31.5C33.4324 26.1668 34.9997 24.5996 34.9997 22.6664C35.0005 21.739 34.6321 20.8493 33.9757 20.193C33.3193 19.5367 32.4286 19.1674 31.4994 19.1665H22.1662C20.2333 19.1665 18.6665 20.7337 18.6665 22.6664C18.666 23.1255 18.7562 23.5803 18.9318 24.0046C19.1075 24.429 19.3651 24.8147 19.6901 25.1397C20.0151 25.4647 20.401 25.7226 20.8259 25.8988C21.2507 26.0749 21.7062 26.1658 22.1662 26.1663" fill="#ECB22E"/>
<path d="M1.76587e-06 22.6664C-0.000460133 23.1255 0.0896964 23.5803 0.265324 24.0046C0.440951 24.429 0.69861 24.8147 1.02359 25.1397C1.34857 25.4647 1.7345 25.7226 2.15936 25.8988C2.58421 26.0749 3.03967 26.1658 3.49972 26.1663C4.42889 26.1653 5.31964 25.7961 5.97606 25.1397C6.63248 24.4834 7.0008 23.5937 7.00002 22.6664V19.1665H3.49972C1.56676 19.1665 1.76587e-06 20.7337 1.76587e-06 22.6664ZM9.33317 22.6664V31.9994C9.33317 33.9326 10.8999 35.4998 12.8329 35.4998C13.7621 35.4989 14.6528 35.1297 15.3092 34.4733C15.9656 33.817 16.334 32.9273 16.3332 32V22.6664C16.3337 22.2072 16.2435 21.7524 16.0678 21.328C15.8922 20.9036 15.6344 20.5178 15.3094 20.1928C14.9844 19.8678 14.5984 19.6099 14.1734 19.4338C13.7485 19.2577 13.293 19.1669 12.8329 19.1665C10.8999 19.1665 9.33317 20.7337 9.33317 22.6664Z" fill="#E01E5A"/>
</svg>
