<svg width="35" height="36" viewBox="0 0 35 36" fill="none" xmlns="http://www.w3.org/2000/svg">
<circle cx="17.5" cy="18" r="17.5" fill="#1ED760"/>
<path d="M23.0882 26.0076C23.5969 26.3198 24.2628 26.1585 24.573 25.6498C24.8852 25.1411 24.7239 24.4773 24.2152 24.1651C19.6506 21.3756 13.9923 20.7267 7.39585 22.2337C6.81354 22.3661 6.45105 22.9451 6.58401 23.5261C6.71635 24.1072 7.29535 24.4711 7.87621 24.3388C13.904 22.9616 19.0224 23.5241 23.0882 26.0076Z" fill="white"/>
<path d="M24.8356 21.3797C25.4704 21.7705 26.3017 21.5699 26.6925 20.9347C27.0833 20.3007 26.8827 19.4696 26.2479 19.0788C20.9025 15.794 13.0841 14.8697 6.79514 16.7779C6.08235 16.995 5.67973 17.7477 5.89479 18.4617C6.1115 19.1745 6.86565 19.5769 7.57968 19.3613C13.0854 17.69 20.1808 18.5186 24.8356 21.3797Z" fill="white"/>
<path d="M6.75647 14.0222C12.0851 12.405 21.2933 12.7098 26.8745 16.0248C27.6417 16.4818 28.6392 16.228 29.0941 15.4584C29.5511 14.6898 29.2988 13.6957 28.5275 13.2389C22.1019 9.42436 11.9332 9.06558 5.81621 10.9225C4.95991 11.1827 4.47727 12.0869 4.73658 12.943C4.99589 13.7987 5.90079 14.2818 6.75647 14.0222Z" fill="white"/>
</svg>
