<svg width="32" height="30" viewBox="0 0 32 30" fill="none" xmlns="http://www.w3.org/2000/svg">
<path d="M30.587 13.6052C30.9394 13.3427 31.2009 12.9764 31.3346 12.5577C31.4684 12.1391 31.4678 11.6891 31.3329 11.2708C31.198 10.8525 30.9356 10.4869 30.5824 10.2253C30.2293 9.96365 29.8031 9.81912 29.3636 9.81194L20.8287 9.48951C20.7868 9.48662 20.7465 9.47165 20.7129 9.44641C20.6792 9.42117 20.6536 9.38674 20.6391 9.34726L17.6898 1.38135C17.5416 0.976073 17.2725 0.62612 16.9188 0.378872C16.5651 0.131624 16.144 -0.000976562 15.7125 -0.000976562C15.281 -0.000976562 14.8599 0.131624 14.5063 0.378872C14.1526 0.62612 13.8835 0.976073 13.7353 1.38135L10.7955 9.37571C10.7809 9.41519 10.7553 9.44962 10.7217 9.47486C10.688 9.5001 10.6478 9.51507 10.6058 9.51796L2.0709 9.84039C1.63145 9.84757 1.20527 9.9921 0.852107 10.2537C0.498947 10.5153 0.236519 10.8809 0.10162 11.2992C-0.0332795 11.7175 -0.0338848 12.1675 0.0998887 12.5862C0.233662 13.0048 0.495106 13.3711 0.847561 13.6337L7.54272 18.8969C7.57623 18.9232 7.60127 18.9589 7.61476 18.9993C7.62824 19.0398 7.62957 19.0833 7.61859 19.1245L5.31416 27.2895C5.19475 27.7053 5.20632 28.1478 5.3473 28.5568C5.48828 28.9658 5.75182 29.3214 6.10208 29.5753C6.45233 29.8291 6.8723 29.969 7.30484 29.9757C7.73738 29.9825 8.1615 29.8558 8.5195 29.6129L15.594 24.8713C15.6288 24.8473 15.6702 24.8344 15.7125 24.8344C15.7549 24.8344 15.7962 24.8473 15.8311 24.8713L22.9056 29.6129C23.2587 29.8641 23.6813 29.999 24.1147 29.999C24.548 29.999 24.9706 29.8641 25.3238 29.6129C25.6741 29.3614 25.9379 29.0076 26.0789 28.6C26.2198 28.1924 26.231 27.7512 26.1109 27.337L23.7875 19.1434C23.7752 19.1023 23.7759 19.0584 23.7894 19.0176C23.803 18.9769 23.8288 18.9414 23.8634 18.9158L30.587 13.6052Z" fill="white"/>
</svg>
