<svg width="27" height="31" viewBox="0 0 27 31" fill="none" xmlns="http://www.w3.org/2000/svg">
<path d="M8.26027 12.5989C14.092 10.6249 15.0847 5.48256 14.3402 0.754542C14.3402 0.583944 14.4891 0.462088 14.638 0.51083C20.2216 3.19166 26.5 9.04075 26.5 17.8144C26.5 24.5408 21.1894 30.4874 13.4716 30.4874C10.7177 30.6104 8.00049 29.8292 5.74887 28.2671C3.49725 26.705 1.83945 24.451 1.03713 21.8609C0.234801 19.2707 0.333645 16.4919 1.31806 13.963C2.30247 11.4342 4.11639 9.29928 6.47352 7.89531C6.62241 7.79782 6.82094 7.89531 6.82094 8.06591C6.89539 8.96764 7.14355 11.2342 8.161 12.5989H8.26027Z" fill="url(#paint0_radial_904_1567)"/>
<defs>
<radialGradient id="paint0_radial_904_1567" cx="0" cy="0" r="1" gradientUnits="userSpaceOnUse" gradientTransform="translate(13.5 30.5) scale(26 30)">
<stop stop-color="#FF7854"/>
<stop offset="1" stop-color="#FD267D"/>
</radialGradient>
</defs>
</svg>
