<svg width="32" height="32" viewBox="0 0 32 32" fill="none" xmlns="http://www.w3.org/2000/svg">
<path d="M15.9996 0.597656C18.0418 0.597656 20.0003 1.4089 21.4443 2.85293C22.8884 4.29696 23.6996 6.25549 23.6996 8.29766C23.6996 10.3398 22.8884 12.2983 21.4443 13.7424C20.0003 15.1864 18.0418 15.9977 15.9996 15.9977C13.9574 15.9977 11.9989 15.1864 10.5549 13.7424C9.11086 12.2983 8.29961 10.3398 8.29961 8.29766C8.29961 6.25549 9.11086 4.29696 10.5549 2.85293C11.9989 1.4089 13.9574 0.597656 15.9996 0.597656ZM15.9996 31.3977C15.9996 31.3977 31.3996 31.3977 31.3996 27.5477C31.3996 22.9277 23.8921 17.9227 15.9996 17.9227C8.10711 17.9227 0.599609 22.9277 0.599609 27.5477C0.599609 31.3977 15.9996 31.3977 15.9996 31.3977Z" fill="white"/>
</svg>
